<svg width="201" height="103" viewBox="0 0 201 103" fill="none" xmlns="http://www.w3.org/2000/svg">
<g clip-path="url(#clip0_599_1890)">
<path fill-rule="evenodd" clip-rule="evenodd" d="M51.2881 23.3262C51.1624 19.8253 49.7275 14.5386 49.1392 11.2597C47.4061 1.60456 49.2145 0.153042 45.1851 0C42.8522 3.13855 45.9705 9.89975 46.9379 13.4035C48.0124 17.2953 48.5591 20.6686 50.0019 23.5657C50.4281 23.4773 50.8567 23.398 51.2885 23.3258L51.2881 23.3262ZM44.9158 25.0434C44.4757 25.2095 44.04 25.3836 43.6086 25.5667C41.6187 21.4913 39.8821 21.4057 40.7286 18.9526C44.3719 19.1675 43.0849 20.8724 44.9154 25.0434H44.9158ZM29.189 37.1805L28.9166 37.3236C24.1366 34.3837 23.6985 32.5888 21.5333 30.629C18.9705 28.3092 18.6731 29.9134 18.6224 29.932C17.7144 32.8977 23.1835 35.2135 27.9214 38.3901L27.3406 40.0942C27.908 39.0899 28.5241 38.1174 29.1886 37.1805H29.189ZM23.233 49.5063C19.9962 48.9988 17.4103 48.5524 14.2825 48.0064C11.4381 47.5104 6.80879 45.7369 4.91757 48.3315C7.38528 51.6568 19.0141 49.0051 22.9583 50.9372C23.153 51.0894 22.7854 51.1549 22.9048 51.3047C22.9979 50.6993 23.1082 50.1002 23.2334 49.5059L23.233 49.5063ZM23.8432 63.8189L18.8313 64.4358C18.8321 64.7455 -0.0174331 66.7659 1.21016e-05 67.0248C0.0812908 68.2182 2.13903 68.6413 2.54701 68.9807C3.48191 69.7586 22.2783 67.2691 24.5728 66.5387C24.2921 65.6479 24.0498 64.7403 23.8436 63.8193L23.8432 63.8189ZM54.0849 90.0267C55.7699 91.0822 53.0913 92.0012 55.1962 94.641C56.7215 94.189 57.1937 93.1815 57.43 91.709C57.4788 91.4065 57.5707 91.3204 57.6988 91.1634C63.834 91.7308 64.9576 90.3431 68.5604 88.1434C64.9485 89.4415 61.0515 90.1504 56.9871 90.1504C56.0094 90.1504 55.0416 90.1072 54.0845 90.0267H54.0849ZM68.8292 88.0451C70.9508 92.8509 71.5114 99.982 73.9435 97.8842L74.1972 97.0397C74.3903 94.7219 71.0507 90.8173 69.9453 87.6106C69.5766 87.7612 69.2047 87.9067 68.8292 88.0451ZM85.2127 75.2054C90.2765 77.7521 90.133 80.5108 94.0348 80.2431C94.1862 76.1189 90.9906 76.9912 86.2518 73.566C85.9208 74.123 85.5746 74.6698 85.2127 75.2054ZM90.7555 60.0099C97.6352 60.0206 108.178 61.4535 109.938 58.9652C109.138 58.3248 109.632 58.5294 108.336 58.1333C106.633 57.6128 103.059 58.0961 99.6208 58.2198C96.6868 58.3248 93.802 58.4581 90.8768 58.5108C90.8467 59.0131 90.8078 59.5135 90.7555 60.0099ZM90.7868 53.326C90.8855 53.1448 90.9938 52.9414 91.1127 52.7103C90.9509 52.5659 90.805 52.4216 90.6722 52.2757C90.7162 52.6242 90.7535 52.9743 90.7864 53.326H90.7868ZM88.7394 44.5693C90.8042 43.4239 93.8342 43.1717 93.6807 40.6996C91.3696 38.5729 90.5295 41.3114 87.7323 42.1194C87.6554 41.9894 87.5793 41.8637 87.5031 41.7384C87.9575 42.6595 88.3698 43.6039 88.7394 44.5697V44.5693ZM72.0586 26.7363C68.7103 22.9448 67.2806 24.5153 61.8337 22.0602C61.5463 14.5235 62.2504 15.9647 59.5758 15.8149C58.6329 17.9317 59.5321 20.1631 59.6681 22.4488L58.0323 22.8691C63.0838 23.0209 67.7948 24.6283 72.0582 26.7363H72.0586Z" fill="url(#paint0_linear_599_1890)"/>
<path fill-rule="evenodd" clip-rule="evenodd" d="M26.1019 103.002C29.5307 102.977 29.162 101.691 30.4997 98.2286L37.7268 81.0078C35.6845 81.8745 36.8319 80.7418 35.4375 83.2547C33.0542 87.5482 25.4783 99.4807 26.1023 103.002H26.1019Z" fill="url(#paint1_linear_599_1890)"/>
<path fill-rule="evenodd" clip-rule="evenodd" d="M77.7533 83.8555C79.0459 86.1566 80.3495 87.3695 81.6325 88.9507C88.6609 97.6122 89.1534 103.515 93.95 101.495C93.7256 98.3318 92.692 97.9655 90.3008 95.918C86.533 92.6911 80.8768 85.075 77.7529 83.8555H77.7533Z" fill="url(#paint2_linear_599_1890)"/>
<path fill-rule="evenodd" clip-rule="evenodd" d="M81.4082 33.6272C84.132 32.7676 92.0236 26.8513 95.5448 24.5398C97.3781 23.3365 99.0727 22.2921 98.2396 19.4113C95.2077 19.1825 92.9569 23.3845 89.6297 26.1027C87.1469 28.1315 82.4454 30.3237 81.4082 33.6272Z" fill="url(#paint3_linear_599_1890)"/>
<path fill-rule="evenodd" clip-rule="evenodd" d="M15.1441 70.424C16.8874 70.6024 18.0027 69.4142 19.656 68.7512L23.1812 67.4869C24.4872 66.7423 23.4991 67.45 24.0883 66.5405C23.5776 66.2804 24.9094 65.8272 22.5091 66.2701L16.2324 68.4769C14.9962 68.978 14.8994 68.9098 15.1437 70.4236L15.1441 70.424Z" fill="url(#paint4_linear_599_1890)"/>
<path fill-rule="evenodd" clip-rule="evenodd" d="M47.3471 87.0395C46.3488 87.8903 47.2869 86.3504 46.1716 88.4442L44.207 93.3883C39.3715 104.411 46.9606 103.542 47.3471 87.0391V87.0395Z" fill="url(#paint5_linear_599_1890)"/>
<path fill-rule="evenodd" clip-rule="evenodd" d="M73.875 28.7568C73.875 28.7568 81.8486 20.1543 80.8578 17.2449C78.3652 16.9995 74.7068 26.4334 73.875 28.7568Z" fill="url(#paint6_linear_599_1890)"/>
<path fill-rule="evenodd" clip-rule="evenodd" d="M48.913 89.7221C50.1302 87.2949 49.3261 88.4399 48.7433 87.7207C48.3392 88.0874 47.7806 88.0938 48.913 89.7221Z" fill="url(#paint7_linear_599_1890)"/>
<path fill-rule="evenodd" clip-rule="evenodd" d="M60.4091 31.1055C61.0676 31.1055 61.7349 31.1293 62.4077 31.1752C69.0797 31.634 74.9223 34.3753 79.1 38.5688C83.2936 42.7783 85.8089 48.4448 85.8089 54.7358C85.8089 55.2623 85.7895 55.8083 85.7506 56.3729C85.2717 63.3307 81.8147 69.6237 76.6133 74.1729C71.4265 78.709 64.5024 81.5145 57.0703 81.5145C56.4114 81.5145 55.7445 81.4908 55.0716 81.4448C48.3997 80.986 42.5575 78.2452 38.3798 74.0512C34.1862 69.8417 31.6709 64.1756 31.6709 57.8842C31.6709 57.3577 31.6903 56.8118 31.7288 56.2472C32.2077 49.2893 35.6647 42.9964 40.8665 38.4471C46.0529 33.911 52.9774 31.1055 60.4095 31.1055H60.4091ZM62.2821 33.0641C61.6798 33.0229 61.0553 33.0014 60.4095 33.0014C53.4457 33.0014 46.9628 35.6258 42.1111 39.8689C37.2748 44.0986 34.0613 49.9344 33.618 56.3725C33.5839 56.8653 33.5673 57.3696 33.5673 57.8838C33.5673 63.6582 35.8744 68.8569 39.7207 72.7178C43.5828 76.5946 48.9987 79.1293 55.1977 79.5555C55.8 79.5968 56.424 79.6178 57.0707 79.6178C64.0345 79.6178 70.5174 76.9935 75.3691 72.7503C80.2058 68.5203 83.4193 62.6848 83.8622 56.2464C83.8959 55.7535 83.9129 55.2492 83.9129 54.735C83.9129 48.961 81.6062 43.762 77.7599 39.901C73.8978 36.0246 68.4818 33.4895 62.2829 33.0633L62.2821 33.0641Z" fill="#EA7943"/>
<path fill-rule="evenodd" clip-rule="evenodd" d="M51.8933 28.6914C59.271 28.6914 66.0596 31.6618 71.0703 36.4644C76.0794 41.2658 79.3123 47.9017 79.5796 55.2339C79.5931 55.6014 79.5998 55.9281 79.5998 56.2128C79.5998 63.1611 76.8875 69.4323 72.4267 74.0311C67.9694 78.6267 61.7661 81.5488 54.7804 81.8033C54.4109 81.8168 54.0787 81.8239 53.7841 81.8239C46.4064 81.8239 39.6182 78.8535 34.6071 74.0509C29.5979 69.2495 26.365 62.6136 26.0974 55.2819C26.0839 54.9143 26.0771 54.588 26.0771 54.3025C26.0771 47.3542 28.7899 41.083 33.2503 36.4843C37.7075 31.8886 43.9109 28.967 50.8965 28.7116C51.2664 28.6981 51.5987 28.6914 51.8929 28.6914H51.8933ZM70.1338 37.4378C65.3685 32.8707 58.9114 30.0458 51.8933 30.0458C51.536 30.0458 51.2196 30.0505 50.9445 30.0609C44.3224 30.3027 38.4426 33.0713 34.2189 37.4259C29.9987 41.7769 27.4323 47.7158 27.4323 54.3021C27.4323 54.651 27.4371 54.9619 27.447 55.2339C27.7011 62.1997 30.777 68.5089 35.5439 73.0771C40.3093 77.6446 46.7664 80.4695 53.7841 80.4695C54.1413 80.4695 54.4577 80.4644 54.7329 80.4545C61.3549 80.213 67.2347 77.444 71.4584 73.0894C75.6786 68.7384 78.245 62.7991 78.245 56.2128C78.245 55.8643 78.2399 55.5534 78.23 55.2815C77.9758 48.3157 74.8999 42.0068 70.133 37.4378H70.1338Z" fill="#FFC728"/>
<path fill-rule="evenodd" clip-rule="evenodd" d="M53.7521 27.3457C61.1299 27.3457 67.9184 30.3161 72.9288 35.1187C77.9383 39.9197 81.1708 46.5556 81.4385 53.8878C81.4519 54.2553 81.4587 54.582 81.4587 54.8667C81.4587 61.815 78.746 68.0862 74.2855 72.685C69.8283 77.2802 63.6249 80.2023 56.6393 80.4576C56.2694 80.4707 55.9372 80.4778 55.643 80.4778C48.2652 80.4778 41.4767 77.5074 36.4659 72.7048C31.4568 67.9034 28.2243 61.2679 27.9563 53.9358C27.9428 53.5682 27.936 53.2419 27.936 52.9568C27.936 46.0081 30.6488 39.7369 35.1092 35.1386C39.5664 30.5429 45.7702 27.6209 52.7554 27.3659C53.1253 27.3524 53.4576 27.3457 53.7517 27.3457H53.7521ZM71.9923 36.0925C67.227 31.525 60.7703 28.7001 53.7521 28.7001C53.3949 28.7001 53.0785 28.7052 52.8034 28.7155C46.1809 28.957 40.3011 31.726 36.0774 36.0806C31.8572 40.4316 29.2908 46.3709 29.2908 52.9576C29.2908 53.3061 29.2956 53.617 29.3055 53.889C29.56 60.8548 32.6355 67.1636 37.4024 71.7322C42.1677 76.2997 48.6245 79.1246 55.6426 79.1246C56.0002 79.1246 56.3166 79.1199 56.5914 79.1096C63.2134 78.8677 69.0936 76.0991 73.3169 71.7445C77.5371 67.3935 80.1035 61.4546 80.1035 54.8683C80.1035 54.5198 80.0988 54.2089 80.0884 53.9369C79.8343 46.9712 76.7584 40.6619 71.9915 36.0937L71.9923 36.0925Z" fill="#FFC728"/>
<path fill-rule="evenodd" clip-rule="evenodd" d="M54.3176 26.4746C61.7032 26.4746 68.4962 29.6342 73.5077 34.7416C78.5097 39.8392 81.7371 46.8819 82.0043 54.6601C82.0178 55.051 82.0245 55.3968 82.0245 55.6973C82.0245 63.0857 79.3023 69.7538 74.8288 74.638C70.3473 79.5302 64.1107 82.6299 57.0902 82.871C56.754 82.8825 56.4602 82.888 56.2084 82.888C48.8227 82.888 42.0298 79.7288 37.0183 74.6214C32.0167 69.5238 28.7893 62.4811 28.5217 54.7025C28.5082 54.312 28.5015 53.9659 28.5015 53.6653C28.5015 46.2773 31.2237 39.6093 35.6972 34.725C40.1786 29.8324 46.4153 26.7331 53.4354 26.4921C53.7716 26.4806 54.0658 26.4746 54.3176 26.4746ZM72.5442 35.6884C67.7797 30.8323 61.3274 27.8286 54.3172 27.8286C53.9925 27.8286 53.7126 27.8326 53.4774 27.8409C46.836 28.0685 40.9335 31.0028 36.6916 35.6349C32.4417 40.2749 29.8558 46.6218 29.8558 53.6653C29.8558 54.0392 29.8606 54.3707 29.8709 54.6601C30.1259 62.0858 33.2065 68.8085 37.9809 73.6742C42.7455 78.5303 49.1978 81.5336 56.208 81.5336C56.5327 81.5336 56.8126 81.5297 57.0474 81.5217C63.6888 81.2938 69.5912 78.3598 73.8332 73.7277C78.0831 69.0877 80.6689 62.7408 80.6689 55.6969C80.6689 55.3234 80.6642 54.9912 80.6543 54.7021C80.3993 47.2764 77.3187 40.5541 72.5442 35.6881V35.6884Z" fill="#D56331"/>
<path fill-rule="evenodd" clip-rule="evenodd" d="M50.8884 26.2793C58.5429 26.2793 65.5832 29.5812 70.7767 34.9198C75.9587 40.2458 79.3027 47.6041 79.579 55.7312C79.5929 56.1375 79.6 56.4987 79.6 56.8147C79.6 64.5382 76.7783 71.5076 72.1414 76.6107C67.4962 81.7229 61.0292 84.9598 53.7482 85.2076C53.4061 85.2195 53.1059 85.225 52.8494 85.225C45.1949 85.225 38.1546 81.9231 32.9611 76.5849C27.7791 71.2586 24.4351 63.9007 24.1588 55.7736C24.1449 55.3668 24.1382 55.0056 24.1382 54.69C24.1382 46.9665 26.9599 39.9968 31.5968 34.8941C36.242 29.7822 42.709 26.5449 49.9892 26.2971C50.3317 26.2856 50.6315 26.2797 50.8884 26.2797V26.2793ZM69.8081 35.8615C64.8624 30.7782 58.1646 27.6337 50.888 27.6337C50.5569 27.6337 50.2719 27.6376 50.0312 27.646C43.1352 27.8807 37.0044 30.9522 32.5963 35.8036C28.1799 40.6637 25.4922 47.3127 25.4922 54.6896C25.4922 55.0789 25.4973 55.4267 25.5076 55.7312C25.7725 63.5074 28.9713 70.5473 33.9293 75.6429C38.875 80.7266 45.5728 83.8706 52.8494 83.8706C53.1805 83.8706 53.4655 83.8667 53.7058 83.8584C60.6022 83.6236 66.733 80.5521 71.1411 75.7007C75.5575 70.8403 78.2452 64.1921 78.2452 56.8147C78.2452 56.4254 78.2401 56.0777 78.2298 55.7732C77.9649 47.997 74.7661 40.9567 69.8081 35.8611V35.8615Z" fill="#F58431"/>
<path fill-rule="evenodd" clip-rule="evenodd" d="M56.4392 26.0473C64.437 26.0473 71.7922 29.5002 77.2188 35.0831C82.634 40.6537 86.1278 48.349 86.4168 56.8487C86.4311 57.2722 86.4382 57.65 86.4382 57.9823C86.4382 66.0602 83.49 73.3487 78.645 78.6854C73.792 84.0307 67.0348 87.4159 59.4283 87.6744C59.0734 87.6863 58.7602 87.6922 58.4906 87.6922C50.4928 87.6922 43.1376 84.2393 37.711 78.6564C32.2958 73.0859 28.8021 65.3905 28.5126 56.8908C28.4983 56.4673 28.4912 56.0895 28.4912 55.7572C28.4912 47.6797 31.4398 40.3908 36.2845 35.0541C41.1378 29.7088 47.8946 26.324 55.5011 26.0651C55.856 26.0528 56.1692 26.0469 56.4388 26.0469L56.4392 26.0473ZM76.2506 36.0243C71.0718 30.6964 64.0588 27.4013 56.4392 27.4013C56.0955 27.4013 55.7969 27.4056 55.544 27.4139C48.322 27.6594 41.9014 30.8792 37.2852 35.9637C32.6606 41.0577 29.846 48.0258 29.846 55.7568C29.846 56.1628 29.8515 56.5268 29.8622 56.848C30.1394 64.9972 33.4885 72.3746 38.6792 77.7144C43.858 83.0419 50.871 86.3375 58.4906 86.3375C58.8344 86.3375 59.1329 86.3331 59.3859 86.3248C66.6078 86.0794 73.0284 82.8595 77.645 77.7751C82.2696 72.6815 85.0838 65.7133 85.0838 57.9819C85.0838 57.5759 85.0783 57.2119 85.0676 56.8908C84.79 48.7415 81.441 41.3642 76.2506 36.0243Z" fill="#EA7943"/>
<path fill-rule="evenodd" clip-rule="evenodd" d="M57.7143 26.1914C65.7086 26.1914 73.0625 29.5631 78.4887 35.0147C83.9067 40.458 87.4024 47.9785 87.6919 56.286C87.7062 56.6999 87.7133 57.069 87.7133 57.3937C87.7133 65.2813 84.7686 72.3986 79.9288 77.6123C75.0842 82.8308 68.3404 86.1398 60.7478 86.4039C60.379 86.4166 60.0512 86.4233 59.7657 86.4233C51.7714 86.4233 44.4179 83.0513 38.9916 77.5996C33.5737 72.1567 30.0775 64.6359 29.7885 56.3284C29.7742 55.9145 29.7671 55.5453 29.7671 55.2206C29.7671 47.3334 32.7118 40.2158 37.5516 35.0024C42.3958 29.7839 49.1396 26.4749 56.7326 26.2104C57.1013 26.1978 57.4292 26.1914 57.7147 26.1914H57.7143ZM77.5308 35.9671C72.352 30.764 65.3371 27.5458 57.7143 27.5458C57.3563 27.5458 57.0434 27.5505 56.7746 27.5597C49.5599 27.811 43.1487 30.9587 38.5404 35.9231C33.9274 40.8922 31.1211 47.6851 31.1211 55.221C31.1211 55.6171 31.1266 55.9727 31.1373 56.286C31.4141 64.237 34.7616 71.4359 39.9487 76.6477C45.128 81.8507 52.1429 85.0689 59.7653 85.0689C60.1233 85.0689 60.4361 85.0642 60.705 85.0551C67.9193 84.8037 74.3304 81.6564 78.9391 76.6917C83.5522 71.7226 86.3585 64.9297 86.3585 57.3937C86.3585 56.9972 86.353 56.642 86.3423 56.3288C86.0655 48.3777 82.718 41.1788 77.5304 35.9671H77.5308Z" fill="#EA7943"/>
<path fill-rule="evenodd" clip-rule="evenodd" d="M50.6498 26.7031C59.0588 26.7031 66.7965 30.0486 72.5086 35.4574C78.2211 40.8662 81.9072 48.3427 82.2125 56.6038C82.2276 57.0126 82.2351 57.3797 82.2351 57.7068C82.2351 65.5306 79.1461 72.5903 74.0664 77.7692C68.9918 82.9425 61.9289 86.2345 53.9747 86.5282C53.55 86.5441 53.1619 86.552 52.8118 86.552C44.4024 86.552 36.6647 83.2065 30.9526 77.7977C25.2401 72.3889 21.554 64.9125 21.2487 56.6514C21.2336 56.243 21.2261 55.8759 21.2261 55.5484C21.2261 47.725 24.3151 40.6652 29.3948 35.4864C34.4698 30.3127 41.5323 27.0207 49.4865 26.7269C49.9111 26.7111 50.2993 26.7031 50.6494 26.7031H50.6498ZM71.5773 36.436C66.1102 31.2595 58.7023 28.0575 50.6494 28.0575C50.2362 28.0575 49.8647 28.0639 49.5341 28.0761C41.9403 28.3565 35.1997 31.4974 30.3578 36.4336C25.5216 41.3642 22.5805 48.0909 22.5805 55.5488C22.5805 55.9381 22.586 56.2902 22.5975 56.6042C22.8893 64.4958 26.4164 71.6431 31.8835 76.8196C37.3506 81.9961 44.7589 85.198 52.8114 85.198C53.2245 85.198 53.596 85.1917 53.9267 85.1798C61.5201 84.8991 68.2611 81.7582 73.1029 76.8224C77.9392 71.8917 80.8799 65.165 80.8799 57.7068C80.8799 57.3179 80.8744 56.9658 80.8629 56.6514C80.5711 48.7602 77.044 41.6124 71.5769 36.436H71.5773Z" fill="#D56331"/>
<path fill-rule="evenodd" clip-rule="evenodd" d="M53.2237 24.6879C61.6414 24.6879 69.3847 28.2642 75.0988 34.0457C80.8022 39.8164 84.4819 47.7901 84.7868 56.5983C84.8019 57.0349 84.8094 57.4258 84.8094 57.7723C84.8094 66.1373 81.7085 73.6847 76.6117 79.2121C71.5082 84.7465 64.4037 88.255 56.4059 88.531C56.0244 88.544 55.6843 88.5508 55.3865 88.5508C46.9688 88.5508 39.2255 84.9745 33.5114 79.193C27.808 73.4222 24.1279 65.4486 23.8234 56.6404C23.8083 56.2038 23.8008 55.8129 23.8008 55.466C23.8008 47.1014 26.9021 39.554 31.9984 34.0262C37.102 28.4917 44.2065 24.9837 52.2047 24.7073C52.5861 24.6942 52.9263 24.6875 53.2241 24.6875L53.2237 24.6879ZM74.1357 34.9925C68.6706 29.4623 61.2679 26.0419 53.2237 26.0419C52.8534 26.0419 52.5275 26.0466 52.2464 26.0562C44.6288 26.3198 37.8588 29.6641 32.9928 34.9417C28.1197 40.2264 25.1544 47.4511 25.1544 55.466C25.1544 55.8847 25.1603 56.2625 25.1718 56.5979C25.4644 65.0509 28.9975 72.705 34.4737 78.2458C39.9388 83.776 47.3415 87.1964 55.3857 87.1964C55.756 87.1964 56.0815 87.1916 56.3626 87.1817C63.9802 86.9185 70.7502 83.5737 75.6166 78.2966C80.4893 73.0119 83.4546 65.7868 83.4546 57.7719C83.4546 57.3532 83.4487 56.9758 83.4372 56.64C83.145 48.187 79.6115 40.5329 74.1357 34.9921V34.9925Z" fill="#FFC728"/>
<path fill-rule="evenodd" clip-rule="evenodd" d="M54.1821 22.748C62.5998 22.748 70.3431 26.3243 76.0572 32.1058C81.7606 37.877 85.4407 45.8502 85.7452 54.6585C85.7603 55.095 85.7678 55.4863 85.7678 55.8329C85.7678 64.1978 82.6665 71.7453 77.5702 77.2726C72.4662 82.8075 65.3621 86.3152 57.3639 86.5915C56.9824 86.6046 56.6427 86.6113 56.3445 86.6113C47.9268 86.6113 40.1835 83.0351 34.4694 77.2536C28.766 71.4828 25.0863 63.5087 24.7814 54.7009C24.7663 54.2644 24.7588 53.873 24.7588 53.5265C24.7588 45.1619 27.8601 37.6145 32.9564 32.0872C38.06 26.5523 45.1645 23.0446 53.1619 22.7683C53.5434 22.7552 53.8839 22.7484 54.1817 22.7484L54.1821 22.748ZM75.0941 33.0526C69.629 27.5225 62.2263 24.102 54.1821 24.102C53.8118 24.102 53.4859 24.1068 53.2048 24.1167C45.5872 24.38 38.8176 27.7243 33.9516 33.0019C29.0785 38.2862 26.1132 45.5112 26.1132 53.5261C26.1132 53.9448 26.1191 54.3227 26.1306 54.6581C26.4228 63.1115 29.9563 70.7652 35.4321 76.306C40.8972 81.8365 48.2999 85.2565 56.3441 85.2565C56.7144 85.2565 57.0403 85.2518 57.3214 85.2419C64.939 84.9786 71.7086 81.6339 76.575 76.3567C81.4481 71.072 84.413 63.8469 84.413 55.8321C84.413 55.4134 84.4071 55.0355 84.396 54.7001C84.1034 46.2471 80.5703 38.593 75.0941 33.0522V33.0526Z" fill="#D56331"/>
<path fill-rule="evenodd" clip-rule="evenodd" d="M55.7911 24.207C64.2084 24.207 71.9521 27.7829 77.6662 33.5648C83.3692 39.3356 87.0493 47.3092 87.3542 56.1175C87.3696 56.554 87.3768 56.9453 87.3768 57.2918C87.3768 65.6564 84.2755 73.2042 79.1791 78.7312C74.0756 84.2661 66.9711 87.7738 58.9732 88.0501C58.5918 88.0632 58.2516 88.0699 57.9539 88.0699C49.5362 88.0699 41.7925 84.4937 36.0788 78.7122C30.3758 72.9414 26.6957 64.9677 26.3908 56.1595C26.3757 55.723 26.3682 55.3316 26.3682 54.9847C26.3682 46.6201 29.4694 39.0727 34.5658 33.5454C39.6693 28.0109 46.7739 24.5028 54.7713 24.2265C55.1527 24.2134 55.4933 24.207 55.7915 24.207H55.7911ZM76.7027 34.5116C71.2376 28.9815 63.8349 25.561 55.7911 25.561C55.4204 25.561 55.0945 25.5658 54.8133 25.5753C47.1957 25.839 40.4262 29.1833 35.5598 34.4608C30.687 39.7451 27.7222 46.9702 27.7222 54.9847C27.7222 55.4034 27.7277 55.7816 27.7396 56.1175C28.0318 64.5705 31.5652 72.2241 37.0411 77.7654C42.5062 83.2955 49.9089 86.7159 57.9531 86.7159C58.3234 86.7159 58.6493 86.7112 58.9304 86.7013C66.548 86.438 73.3175 83.0933 78.184 77.8161C83.0567 72.5314 86.022 65.3067 86.022 57.2918C86.022 56.8732 86.0161 56.4953 86.0046 56.1599C85.7124 47.7069 82.1789 40.0528 76.7027 34.512V34.5116Z" fill="#FFC728"/>
<path fill-rule="evenodd" clip-rule="evenodd" d="M61.0554 27.391L61.5328 27.3986C69.4022 27.5365 76.4524 31.0533 81.5329 36.6731C86.5968 42.2745 89.7024 49.9631 89.7024 58.4645C89.7024 58.5299 89.6993 58.7357 89.6937 59.0751C89.5411 67.8012 86.1492 75.7043 80.7891 81.4283C75.4073 87.1753 68.0458 90.7302 59.9806 90.7302L59.5032 90.7222C51.6339 90.5847 44.5836 87.0675 39.5035 81.4477C34.4396 75.8462 31.334 68.1581 31.334 59.6563C31.334 59.5909 31.3372 59.3851 31.3427 59.0453C31.4954 50.3196 34.8873 42.4161 40.2473 36.6925C45.6291 30.9455 52.9906 27.3906 61.0558 27.3906L61.0554 27.391ZM61.5031 29.2874H61.0554C53.5298 29.287 46.6548 32.6095 41.6247 37.9814C36.5727 43.3764 33.3755 50.8342 33.2315 59.0755C33.2304 59.1341 33.23 59.326 33.23 59.6571C33.23 67.6803 36.1473 74.9205 40.9031 80.1818C45.643 85.4248 52.2107 88.7061 59.5326 88.8342H59.9802C67.5062 88.8346 74.3804 85.5121 79.411 80.1401C84.4629 74.7448 87.6602 67.287 87.8041 59.0461C87.8053 58.9878 87.8057 58.7955 87.8057 58.4649C87.8057 50.4417 84.8888 43.2015 80.1326 37.9402C75.3926 32.6971 68.8249 29.4159 61.5031 29.2878V29.2874Z" fill="#FFC728"/>
<path fill-rule="evenodd" clip-rule="evenodd" d="M56.0435 28.9258C56.1724 28.9258 56.3825 28.929 56.6731 28.9349C64.4093 29.0911 71.3406 32.1167 76.3386 36.9288C81.349 41.752 84.4193 48.3669 84.4193 55.6867C84.4193 55.7799 84.4166 55.9575 84.4118 56.2164C84.2595 63.7523 80.8823 70.5726 75.5461 75.5068C70.2181 80.4331 62.938 83.4801 54.9687 83.4801C54.8398 83.4801 54.6297 83.4769 54.3391 83.4714C46.6029 83.3151 39.6716 80.2892 34.6736 75.4775C29.6636 70.6539 26.5933 64.0394 26.5933 56.7195C26.5933 56.6264 26.596 56.4484 26.6012 56.1898C26.7534 48.6539 30.1303 41.8336 35.4669 36.8998C40.7944 31.9731 48.075 28.9262 56.0443 28.9262L56.0435 28.9258ZM56.647 30.2837C56.528 30.2814 56.327 30.2798 56.0439 30.2798C48.422 30.2798 41.4661 33.1876 36.382 37.8883C31.3066 42.581 28.0947 49.0611 27.9504 56.2156C27.9488 56.3017 27.948 56.4686 27.948 56.7191C27.948 63.6584 30.8594 69.9295 35.6104 74.5037C40.3738 79.089 46.9839 81.9727 54.366 82.1217C54.4846 82.1241 54.686 82.1253 54.9691 82.1253C62.591 82.1253 69.5469 79.2175 74.631 74.5172C79.7063 69.8241 82.9182 63.3444 83.0626 56.1898C83.0642 56.1038 83.0653 55.9369 83.0653 55.6867C83.0653 48.7475 80.1536 42.4759 75.4025 37.9021C70.6392 33.3164 64.0291 30.4328 56.6474 30.2841L56.647 30.2837Z" fill="#F58431"/>
<path fill-rule="evenodd" clip-rule="evenodd" d="M52.8095 26.2152C61.2185 26.2152 68.9566 29.5608 74.6688 34.9696C80.3813 40.3784 84.0674 47.8548 84.3727 56.1159C84.3877 56.5247 84.3953 56.8918 84.3953 57.2189C84.3953 65.0423 81.3063 72.1025 76.2261 77.2813C71.1516 82.455 64.0887 85.747 56.1344 86.0408C55.7098 86.0562 55.3216 86.0642 54.9716 86.0642C46.5626 86.0642 38.8244 82.7186 33.1127 77.3102C27.4002 71.901 23.7137 64.425 23.4088 56.1635C23.3934 55.7547 23.3862 55.3876 23.3862 55.0601C23.3862 47.2367 26.4752 40.1769 31.5549 34.9981C36.6295 29.8248 43.6924 26.5328 51.6463 26.2386C52.0709 26.2232 52.459 26.2148 52.8095 26.2148V26.2152ZM73.7374 35.9481C68.2707 30.7716 60.8625 27.5696 52.8095 27.5696C52.3968 27.5696 52.0249 27.5756 51.6938 27.5879C44.1004 27.8686 37.3594 31.0095 32.518 35.9453C27.6817 40.8755 24.7406 47.6023 24.7406 55.0601C24.7406 55.4494 24.7466 55.8015 24.7581 56.1155C25.0499 64.0071 28.577 71.1549 34.0441 76.3309C39.5107 81.5074 46.919 84.7094 54.9719 84.7094C55.3851 84.7094 55.7566 84.7034 56.0872 84.6911C63.6807 84.4104 70.4216 81.2699 75.2635 76.3337C80.0998 71.4031 83.0409 64.6763 83.0409 57.2181C83.0409 56.8292 83.0353 56.4767 83.0234 56.1627C82.732 48.2715 79.2045 41.1237 73.7374 35.9473V35.9481Z" fill="#D67732"/>
<path fill-rule="evenodd" clip-rule="evenodd" d="M56.3423 22.2637C64.76 22.2637 72.5033 25.8399 78.2173 31.6214C83.9207 37.3922 87.6005 45.3663 87.9054 54.1741C87.9208 54.6106 87.928 55.002 87.928 55.3489C87.928 63.7135 84.8271 71.2613 79.7299 76.7882C74.6264 82.3231 67.5219 85.8312 59.5244 86.1071C59.143 86.1206 58.8024 86.127 58.5047 86.127C50.087 86.127 42.3437 82.5507 36.6296 76.7688C30.9262 70.998 27.2464 63.0244 26.9415 54.2165C26.9265 53.78 26.9189 53.3887 26.9189 53.0418C26.9189 44.6772 30.0202 37.1298 35.1166 31.6024C40.2205 26.0679 47.3247 22.5598 55.3225 22.2835C55.7039 22.2704 56.0441 22.2637 56.3423 22.2637ZM77.2543 32.5686C71.7892 27.0385 64.3865 23.6181 56.3423 23.6181C55.9719 23.6181 55.646 23.6228 55.3649 23.6327C47.7473 23.8964 40.9774 27.2407 36.1114 32.5183C31.2386 37.8026 28.2733 45.0277 28.2733 53.0425C28.2733 53.4616 28.2789 53.8391 28.2908 54.1745C28.583 62.6279 32.1164 70.282 37.5922 75.8228C43.0573 81.3529 50.46 84.7734 58.5043 84.7734C58.8746 84.7734 59.2005 84.7686 59.4816 84.7587C67.0992 84.4954 73.8687 81.1511 78.7351 75.8735C83.6079 70.5888 86.5732 63.3642 86.5732 55.3493C86.5732 54.9306 86.5676 54.5527 86.5558 54.2173C86.2635 45.7643 82.7301 38.1103 77.2543 32.5694V32.5686Z" fill="#D56331"/>
<path fill-rule="evenodd" clip-rule="evenodd" d="M55.0478 24.8594C63.4655 24.8594 71.2088 28.4356 76.9229 34.2171C82.6263 39.9879 86.3064 47.9616 86.6109 56.7698C86.626 57.2063 86.6335 57.5973 86.6335 57.9438C86.6335 66.3088 83.5323 73.8562 78.4355 79.3835C73.332 84.9184 66.2274 88.4265 58.2296 88.7024C57.8482 88.7159 57.508 88.7223 57.2102 88.7223C48.7925 88.7223 41.0492 85.146 35.3351 79.3641C29.6318 73.5933 25.9516 65.6197 25.6471 56.8118C25.632 56.3753 25.6245 55.984 25.6245 55.6375C25.6245 47.2729 28.7258 39.7251 33.8226 34.1981C38.9261 28.6636 46.0302 25.1555 54.0281 24.8792C54.4095 24.8661 54.7497 24.8594 55.0478 24.8594ZM75.9599 35.1639C70.4948 29.6338 63.092 26.2134 55.0478 26.2134C54.6771 26.2134 54.3516 26.2181 54.0705 26.228C46.4529 26.4913 39.683 29.836 34.8169 35.1132C29.9442 40.3979 26.9789 47.6226 26.9789 55.6375C26.9789 56.0561 26.9848 56.434 26.9963 56.7694C27.2885 65.2224 30.822 72.8765 36.2978 78.4173C41.7629 83.9474 49.1656 87.3679 57.2098 87.3679C57.5802 87.3679 57.9061 87.3631 58.1868 87.3532C65.8048 87.09 72.5743 83.7456 77.4407 78.4681C82.3139 73.1834 85.2788 65.9583 85.2788 57.9434C85.2788 57.5251 85.2728 57.1473 85.2617 56.8118C84.9691 48.3584 81.4361 40.7048 75.9599 35.1635V35.1639Z" fill="#D56331"/>
<path fill-rule="evenodd" clip-rule="evenodd" d="M60.2836 25.2699C60.4283 25.2699 60.6539 25.2731 60.9616 25.279C69.3059 25.4472 76.782 28.7146 82.1725 33.9101C87.5754 39.1174 90.8868 46.2589 90.8868 54.1608C90.8868 54.2686 90.8836 54.4605 90.8785 54.7329C90.7143 62.8687 87.0727 70.2318 81.3173 75.5597C75.5711 80.8793 67.7184 84.1697 59.1223 84.1697C58.9776 84.1697 58.752 84.1665 58.4447 84.1602C50.0999 83.992 42.6239 80.725 37.2329 75.5291C31.8301 70.3218 28.519 63.1807 28.519 55.278C28.519 55.1694 28.5218 54.9799 28.5274 54.7063C28.6915 46.5701 32.3336 39.2071 38.0885 33.8795C43.8351 28.5599 51.6875 25.2695 60.284 25.2695L60.2836 25.2699ZM60.935 26.6283C60.8006 26.6255 60.5833 26.6243 60.2836 26.6243C52.0344 26.6243 44.5068 29.7751 39.004 34.8691C33.51 39.9548 30.0332 46.9785 29.8766 54.7333C29.8746 54.8328 29.8734 55.016 29.8734 55.2784C29.8734 62.8005 33.0259 69.5982 38.1694 74.5562C43.3257 79.5257 50.4806 82.6503 58.4709 82.8113C58.6053 82.8141 58.8225 82.8153 59.1219 82.8153C67.3707 82.8153 74.8987 79.6644 80.4015 74.5708C85.8955 69.4848 89.3718 62.4615 89.5285 54.7067C89.5304 54.6056 89.5316 54.4248 89.5316 54.1608C89.5316 46.6391 86.3792 39.841 81.2356 34.8834C76.0798 29.9139 68.9249 26.7892 60.935 26.6283Z" fill="#F58431"/>
<path fill-rule="evenodd" clip-rule="evenodd" d="M56.7126 24.5434C56.8573 24.5434 57.0833 24.5465 57.3906 24.5529C65.7349 24.721 73.211 27.988 78.6016 33.1839C84.0044 38.3913 87.3154 45.5327 87.3154 53.4346C87.3154 53.5424 87.3127 53.7343 87.3071 54.0067C87.143 62.1425 83.5013 69.506 77.7459 74.8335C71.9997 80.1527 64.147 83.4431 55.5505 83.4431C55.4058 83.4431 55.1802 83.4399 54.8729 83.434C46.5282 83.2659 39.0521 79.9989 33.6615 74.803C28.2583 69.5956 24.9473 62.4542 24.9473 54.5519C24.9473 54.4432 24.95 54.2533 24.9556 53.9802C25.1201 45.8439 28.7618 38.4809 34.5168 33.153C40.263 27.8334 48.1157 24.543 56.7118 24.543L56.7126 24.5434ZM57.3644 25.9017C57.23 25.8989 57.0127 25.8977 56.7126 25.8977C48.4638 25.8977 40.9358 29.0486 35.4326 34.1426C29.9386 39.2287 26.4622 46.2523 26.3056 54.0067C26.3036 54.1062 26.3024 54.2894 26.3024 54.5519C26.3024 62.0739 29.4549 68.8716 34.5984 73.8296C39.7543 78.7991 46.9096 81.9238 54.8995 82.0848C55.0339 82.0875 55.2512 82.0887 55.5505 82.0887C63.7997 82.0887 71.3277 78.9379 76.8305 73.8439C82.3245 68.7578 85.8013 61.7345 85.9575 53.9798C85.9595 53.8787 85.9607 53.6979 85.9607 53.4338C85.9607 45.9121 82.8082 39.1141 77.6647 34.1565C72.5088 29.1874 65.3535 26.0623 57.364 25.9013L57.3644 25.9017Z" fill="#FFC728"/>
<path fill-rule="evenodd" clip-rule="evenodd" d="M197.044 48.9713H197.996C198.199 48.9713 198.358 48.9511 198.471 48.909C198.585 48.8666 198.672 48.7996 198.732 48.7072C198.791 48.616 198.821 48.5153 198.821 48.4079C198.821 48.2509 198.764 48.1204 198.648 48.0178C198.534 47.9167 198.351 47.8651 198.103 47.8651H197.044V48.9709V48.9713ZM196.601 50.8387V47.496H198.086C198.384 47.496 198.611 47.5253 198.766 47.586C198.921 47.6459 199.045 47.7517 199.139 47.9032C199.231 48.0562 199.277 48.2235 199.277 48.4075C199.277 48.6454 199.201 48.8448 199.046 49.0074C198.893 49.1699 198.655 49.2734 198.334 49.3178C198.452 49.3741 198.54 49.4296 198.601 49.4847C198.731 49.6033 198.853 49.7516 198.969 49.9292L199.551 50.8387H198.994L198.551 50.1429C198.422 49.9435 198.315 49.7888 198.231 49.683C198.147 49.5763 198.072 49.5018 198.006 49.4598C197.94 49.4169 197.872 49.3872 197.805 49.3702C197.753 49.3602 197.673 49.3547 197.557 49.3547H197.043V50.8391H196.6L196.601 50.8387ZM197.9 46.6784C199.277 46.6784 200.393 47.793 200.393 49.1676C200.393 50.5422 199.277 51.6567 197.9 51.6567C196.524 51.6567 195.409 50.5422 195.409 49.1676C195.409 47.793 196.524 46.6784 197.9 46.6784ZM197.9 46.4152C199.423 46.4152 200.656 47.6478 200.656 49.1676C200.656 50.6873 199.423 51.9199 197.9 51.9199C196.378 51.9199 195.145 50.6877 195.145 49.1676C195.145 47.6474 196.378 46.4152 197.9 46.4152ZM83.7907 68.8204L85.2026 65.0899C84.7081 65.1922 84.2728 65.2667 83.914 65.3174C83.5496 65.3686 83.2515 65.3912 83.0187 65.3912C82.5271 65.3912 82.1524 65.2718 81.8872 65.026C81.6215 64.7818 81.5117 64.4563 81.5537 64.0511C81.5954 63.6407 81.792 63.2867 82.1409 62.9841C82.4859 62.6816 82.964 62.4592 83.5659 62.3153L85.0075 61.9799C85.4654 61.8601 85.8346 61.7515 86.1161 61.6714C86.398 61.5873 86.6525 61.5053 86.8829 61.426L86.4404 64.4741C86.3892 64.7532 86.3 65.227 86.1862 65.8983C86.0653 66.5727 85.9027 67.514 85.6871 68.7177H92.2988C92.409 67.6281 92.4824 66.9153 92.5165 66.5786C92.551 66.242 92.5874 65.9911 92.6275 65.8249L93.9204 57.0778C93.9799 56.7348 94.0298 56.4053 94.0738 56.0905C94.1167 55.7821 94.15 55.5029 94.1749 55.2575C94.3312 53.7279 93.8542 52.6039 92.7365 51.8747C91.6208 51.1444 89.8121 50.7781 87.3218 50.7781C86.0843 50.7781 84.8917 50.8518 83.7415 51.006C82.5929 51.1547 81.4935 51.3716 80.4547 51.6626L79.1947 56.627C80.3302 56.1702 81.4665 55.8233 82.5901 55.5822C83.7138 55.3428 84.7752 55.2238 85.7672 55.2238C86.4907 55.2238 86.9943 55.3091 87.2908 55.4799C87.5866 55.6564 87.7115 55.9363 87.673 56.3244C87.5969 57.0607 86.2604 57.7058 83.6682 58.2474C83.2673 58.3267 82.9636 58.3949 82.7424 58.4528C80.4694 58.9377 78.8002 59.6458 77.7443 60.5581C76.6881 61.472 76.0815 62.7209 75.9197 64.3021C75.7675 65.7972 76.1426 66.9724 77.0501 67.8391C77.96 68.7014 79.3001 69.1344 81.0684 69.1344C81.4669 69.1344 81.8967 69.1062 82.3534 69.0491C82.809 68.9972 83.2895 68.9179 83.7907 68.82V68.8204ZM95.3188 63.2641C96.5895 63.6578 97.6204 63.9309 98.4145 64.0907C99.2059 64.2565 99.8875 64.3362 100.468 64.3362C101.049 64.3362 101.515 64.2454 101.847 64.0685C102.178 63.8913 102.358 63.6348 102.393 63.2966C102.429 62.956 101.847 62.3442 100.641 61.4771C100.488 61.3625 100.366 61.2777 100.286 61.2265C98.591 60.0232 97.5272 59.0522 97.0875 58.3271C96.6494 57.5975 96.4809 56.7463 96.5804 55.7777C96.7449 54.1632 97.4796 52.9361 98.7844 52.1027C100.09 51.2641 101.904 50.8471 104.23 50.8471C105.302 50.8471 106.289 50.8982 107.207 51.0068C108.118 51.1111 108.962 51.2756 109.744 51.4989L109.677 56.2103C108.864 55.9775 108.118 55.8062 107.432 55.7028C106.749 55.5949 106.08 55.5442 105.437 55.5442C104.947 55.5442 104.55 55.6294 104.248 55.8003C103.945 55.9775 103.778 56.2055 103.75 56.4965C103.706 56.9176 104.164 57.4497 105.127 58.0828C105.355 58.2359 105.525 58.3616 105.636 58.4472C107.083 59.4408 108.053 60.3368 108.545 61.1346C109.041 61.9339 109.233 62.8359 109.13 63.8517C108.951 65.6144 108.187 66.9434 106.847 67.851C105.5 68.7522 103.607 69.203 101.174 69.203C100.136 69.203 99.1179 69.1348 98.1215 69.0031C97.1212 68.8663 96.1558 68.6733 95.2236 68.4156L95.3184 63.2637L95.3188 63.2641ZM119.185 60.4272C119.184 60.4498 119.167 60.5533 119.136 60.7361C119.106 60.9181 119.082 61.0953 119.066 61.2606C118.95 62.3902 119.025 63.1606 119.291 63.5773C119.549 63.9928 120.064 64.2045 120.817 64.2045C120.987 64.2045 121.335 64.1593 121.866 64.0741C122.081 64.0396 122.249 64.017 122.376 64.0059L121.482 68.8477C120.91 68.9742 120.32 69.0662 119.716 69.1181C119.106 69.1744 118.476 69.203 117.821 69.203C115.759 69.203 114.278 68.7466 113.367 67.8391C112.456 66.9327 112.096 65.5454 112.286 63.6851L112.347 63.1039L113.478 55.7769H110.975L111.632 51.2971H114.403L114.843 48.49L121.126 47.1205L120.466 51.2971H124.358L123.668 55.7769H119.911L119.185 60.4268L119.185 60.4272ZM123.809 68.7181H130.341L130.425 67.8966C130.897 63.2867 131.441 60.1307 132.054 58.4309C132.667 56.7304 133.512 55.8796 134.593 55.8796C135.249 55.8796 135.676 56.1774 135.876 56.7637C136.078 57.3577 136.092 58.4984 135.919 60.1945C135.783 61.5295 135.607 62.9092 135.394 64.3306C135.186 65.7512 134.935 67.2122 134.649 68.7177H140.941L141.026 67.8962C141.497 63.2863 142.041 60.1303 142.655 58.4306C143.268 56.73 144.113 55.8792 145.195 55.8792C145.85 55.8792 146.281 56.177 146.484 56.7633C146.685 57.3573 146.7 58.498 146.525 60.1941C146.372 61.7051 146.187 63.1776 145.972 64.5974C145.765 66.0184 145.521 67.395 145.255 68.7177H151.765C152.016 66.6988 152.345 64.3306 152.759 61.6032C153.169 58.8806 153.414 57.1527 153.489 56.4275C153.689 54.4598 153.386 53.021 152.577 52.1253C151.762 51.2293 150.378 50.7781 148.423 50.7781C147.219 50.7781 146.2 51.006 145.362 51.4636C144.522 51.9195 143.714 52.6851 142.938 53.7564C142.707 52.7755 142.167 52.0337 141.33 51.5318C140.492 51.0302 139.366 50.7785 137.954 50.7785C136.801 50.7785 135.817 50.9838 135.001 51.3954C134.178 51.8109 133.384 52.4964 132.619 53.4559L132.839 51.2979H126.439C126.122 54.4086 125.747 57.4092 125.302 60.3079C124.864 63.2074 124.367 66.0073 123.809 68.7185V68.7181ZM162.77 68.8204C162.27 68.9179 161.789 68.998 161.333 69.0495C160.877 69.1062 160.446 69.1348 160.048 69.1348C158.282 69.1348 156.94 68.7014 156.031 67.8395C155.123 66.9724 154.747 65.7976 154.899 64.3025C155.061 62.7213 155.668 61.4724 156.724 60.5585C157.781 59.6462 159.449 58.9381 161.722 58.4532C161.944 58.3953 162.248 58.3271 162.649 58.2478C165.24 57.7062 166.576 57.0611 166.653 56.3248C166.691 55.9367 166.566 55.6568 166.271 55.4803C165.976 55.3095 165.47 55.2242 164.747 55.2242C163.756 55.2242 162.694 55.3432 161.569 55.5826C160.447 55.8237 159.311 56.1706 158.176 56.6274L159.434 51.663C160.474 51.3724 161.574 51.1555 162.721 51.0064C163.872 50.8522 165.065 50.7785 166.302 50.7785C168.793 50.7785 170.603 51.1448 171.719 51.8751C172.835 52.6047 173.312 53.7283 173.156 55.2579C173.133 55.5033 173.097 55.7825 173.054 56.0909C173.011 56.4057 172.959 56.7352 172.902 57.0782L171.608 65.8253C171.569 65.9915 171.531 66.2424 171.496 66.579C171.462 66.9153 171.389 67.6281 171.278 68.7181H164.667C164.882 67.5143 165.046 66.5731 165.166 65.8987C165.281 65.2274 165.369 64.7536 165.42 64.4745L165.863 61.4264C165.632 61.5057 165.378 61.5877 165.096 61.6718C164.815 61.7519 164.445 61.8601 163.988 61.9803L162.545 62.3157C161.944 62.46 161.466 62.6824 161.122 62.9845C160.772 63.2871 160.576 63.6411 160.534 64.0515C160.492 64.4567 160.601 64.7818 160.868 65.0264C161.134 65.2722 161.509 65.3916 161.997 65.3916C162.232 65.3916 162.53 65.369 162.894 65.3178C163.253 65.2671 163.688 65.1926 164.183 65.0903L162.771 68.8208L162.77 68.8204ZM76.52 46.0488H58.3171C57.7672 50.8074 57.2006 55.0811 56.6246 58.8639C56.0497 62.6475 55.4692 65.9336 54.8828 68.7181H73.2165L74.0234 63.4512C73.0916 63.5444 72.0933 63.6062 71.0275 63.6522C69.9681 63.697 68.8612 63.7208 67.6979 63.7208C66.5981 63.7208 65.6659 63.703 64.9102 63.6689C64.1506 63.6348 63.4429 63.5836 62.7966 63.5035C62.7954 63.4016 62.8017 63.2867 62.8093 63.1495C62.8168 63.0182 62.8315 62.818 62.86 62.5496C62.9064 62.0936 62.9695 61.6428 63.0487 61.1917C63.1292 60.7472 63.2268 60.2905 63.3366 59.823H68.2327H69.8004C70.6838 59.823 71.3332 59.8278 71.7535 59.8397C72.1754 59.8511 72.577 59.8741 72.9497 59.9082L73.7613 54.5783C73.2459 54.618 72.6836 54.6521 72.083 54.6755C71.4811 54.6985 70.7912 54.7092 70.0268 54.7092H64.145L64.1902 54.277C64.2271 53.9174 64.2786 53.5285 64.3433 53.1066C64.4099 52.6847 64.5344 52.0337 64.7084 51.1666L71.8903 51.1496C72.1353 51.1496 72.6071 51.1607 73.3053 51.1888C74.0031 51.2182 74.8092 51.2586 75.7159 51.2975L76.5208 46.0488H76.52ZM174.487 68.7181C175.044 66.0073 175.542 63.2074 175.98 60.3075C176.424 57.4088 176.799 54.4082 177.117 51.2975H183.511L183.292 53.4555C184.146 52.5075 185.059 51.822 186.027 51.4061C186.991 50.9894 188.13 50.7781 189.446 50.7781C191.727 50.7781 193.339 51.2229 194.285 52.1142C195.064 52.856 195.453 53.9689 195.448 55.4542C195.447 55.7626 195.43 56.087 195.393 56.4275C195.323 57.1404 195.07 58.8639 194.65 61.5869C194.229 64.3132 193.891 66.6861 193.637 68.7177H187.059C187.386 66.9268 187.669 65.2715 187.897 63.7597C188.132 62.2522 188.293 61.0604 188.382 60.1941C188.55 58.5432 188.489 57.414 188.193 56.7978C187.902 56.1877 187.313 55.8792 186.434 55.8792C184.999 55.8792 183.919 56.6781 183.192 58.2708C182.47 59.8619 181.807 63.3485 181.219 68.7177H174.487V68.7181Z" fill="white"/>
</g>
<defs>
<linearGradient id="paint0_linear_599_1890" x1="4.91421" y1="49.1304" x2="109.937" y2="49.1304" gradientUnits="userSpaceOnUse">
<stop stop-color="#FCB534"/>
<stop offset="1" stop-color="#D67732"/>
</linearGradient>
<linearGradient id="paint1_linear_599_1890" x1="26.0652" y1="92.005" x2="37.7262" y2="92.005" gradientUnits="userSpaceOnUse">
<stop stop-color="#FCB534"/>
<stop offset="1" stop-color="#D67732"/>
</linearGradient>
<linearGradient id="paint2_linear_599_1890" x1="77.7535" y1="92.8742" x2="93.9502" y2="92.8742" gradientUnits="userSpaceOnUse">
<stop stop-color="#FCB534"/>
<stop offset="1" stop-color="#D67732"/>
</linearGradient>
<linearGradient id="paint3_linear_599_1890" x1="81.4084" y1="26.5147" x2="98.4575" y2="26.5147" gradientUnits="userSpaceOnUse">
<stop stop-color="#FCB534"/>
<stop offset="1" stop-color="#D67732"/>
</linearGradient>
<linearGradient id="paint4_linear_599_1890" x1="15.0364" y1="68.2632" x2="24.0881" y2="68.2632" gradientUnits="userSpaceOnUse">
<stop stop-color="#FCB534"/>
<stop offset="1" stop-color="#D67732"/>
</linearGradient>
<linearGradient id="paint5_linear_599_1890" x1="42.601" y1="93.8772" x2="47.3469" y2="93.8772" gradientUnits="userSpaceOnUse">
<stop stop-color="#FCB534"/>
<stop offset="1" stop-color="#D67732"/>
</linearGradient>
<linearGradient id="paint6_linear_599_1890" x1="73.8748" y1="22.9983" x2="80.9429" y2="22.9983" gradientUnits="userSpaceOnUse">
<stop stop-color="#FCB534"/>
<stop offset="1" stop-color="#D67732"/>
</linearGradient>
<linearGradient id="paint7_linear_599_1890" x1="48.2431" y1="88.7214" x2="49.5475" y2="88.7214" gradientUnits="userSpaceOnUse">
<stop stop-color="#FCB937"/>
<stop offset="1" stop-color="#D67732"/>
</linearGradient>
<clipPath id="clip0_599_1890">
<rect width="200.656" height="103" fill="white"/>
</clipPath>
</defs>
</svg>
