<svg width="20" height="20" viewBox="0 0 20 20" fill="none" xmlns="http://www.w3.org/2000/svg">
<g clip-path="url(#clip0_622_17777)">
<path d="M17.95 12.5H14.1667C13.7246 12.5 13.3007 12.6756 12.9882 12.9882C12.6756 13.3007 12.5 13.7246 12.5 14.1667V17.95" stroke="#011B35" stroke-width="1.66667" stroke-linecap="round" stroke-linejoin="round"/>
<path d="M5.8335 2.7832V4.16654C5.8335 4.82958 6.09689 5.46546 6.56573 5.9343C7.03457 6.40314 7.67045 6.66654 8.3335 6.66654C8.77552 6.66654 9.19945 6.84213 9.51201 7.15469C9.82457 7.46725 10.0002 7.89118 10.0002 8.3332C10.0002 9.24987 10.7502 9.99987 11.6668 9.99987C12.1089 9.99987 12.5328 9.82427 12.8453 9.51171C13.1579 9.19915 13.3335 8.77523 13.3335 8.3332C13.3335 7.41654 14.0835 6.66654 15.0002 6.66654H17.6418" stroke="#011B35" stroke-width="1.66667" stroke-linecap="round" stroke-linejoin="round"/>
<path d="M9.16683 18.292V15.0003C9.16683 14.5583 8.99123 14.1344 8.67867 13.8218C8.36611 13.5093 7.94219 13.3337 7.50016 13.3337C7.05813 13.3337 6.63421 13.1581 6.32165 12.8455C6.00909 12.5329 5.8335 12.109 5.8335 11.667V10.8337C5.8335 10.3916 5.6579 9.96771 5.34534 9.65515C5.03278 9.34259 4.60886 9.16699 4.16683 9.16699H1.7085" stroke="#011B35" stroke-width="1.66667" stroke-linecap="round" stroke-linejoin="round"/>
<path d="M9.99984 18.3337C14.6022 18.3337 18.3332 14.6027 18.3332 10.0003C18.3332 5.39795 14.6022 1.66699 9.99984 1.66699C5.39746 1.66699 1.6665 5.39795 1.6665 10.0003C1.6665 14.6027 5.39746 18.3337 9.99984 18.3337Z" stroke="#011B35" stroke-width="1.66667" stroke-linecap="round" stroke-linejoin="round"/>
</g>
<defs>
<clipPath id="clip0_622_17777">
<rect width="20" height="20" fill="white"/>
</clipPath>
</defs>
</svg>
