<svg width="25" height="25" viewBox="0 0 25 25" fill="none" xmlns="http://www.w3.org/2000/svg">
<path d="M15.9319 13.2695L17.4914 22.0461C17.5089 22.1494 17.4944 22.2557 17.4498 22.3505C17.4053 22.4454 17.3329 22.5245 17.2422 22.5771C17.1516 22.6297 17.047 22.6533 16.9425 22.6449C16.8381 22.6365 16.7386 22.5964 16.6576 22.5299L12.9724 19.7639C12.7945 19.631 12.5784 19.5592 12.3563 19.5592C12.1342 19.5592 11.9181 19.631 11.7402 19.7639L8.04881 22.5289C7.96782 22.5952 7.86853 22.6353 7.76418 22.6437C7.65983 22.6521 7.5554 22.6286 7.4648 22.5761C7.3742 22.5236 7.30176 22.4448 7.25713 22.3501C7.2125 22.2554 7.1978 22.1494 7.21501 22.0461L8.7735 13.2695" stroke="#1A3680" stroke-width="2.47053" stroke-linecap="round" stroke-linejoin="round"/>
<path d="M12.3521 14.4113C15.7632 14.4113 18.5285 11.646 18.5285 8.23493C18.5285 4.82383 15.7632 2.05859 12.3521 2.05859C8.94102 2.05859 6.17578 4.82383 6.17578 8.23493C6.17578 11.646 8.94102 14.4113 12.3521 14.4113Z" stroke="#1A3680" stroke-width="2.47053" stroke-linecap="round" stroke-linejoin="round"/>
</svg>
