<svg id="Group_2" data-name="Group 2" xmlns="http://www.w3.org/2000/svg" xmlns:xlink="http://www.w3.org/1999/xlink" width="28.335" height="50" viewBox="0 0 28.335 50">
  <style>path, #Rectangle_1, #Rectangle_2 { fill: #fff !important; }</style>
  <defs>
    <clipPath id="clip-path">
      <rect id="Rectangle_3" data-name="Rectangle 3" width="28.335" height="50" fill="none"/>
    </clipPath>
  </defs>
  <g id="Group_1" data-name="Group 1" clip-path="url(#clip-path)">
    <path id="Path_1" data-name="Path 1" d="M24.222,49.993,4.185,50A4.175,4.175,0,0,1,0,45.714V4.3A4.2,4.2,0,0,1,4.29,0H24.054a4.182,4.182,0,0,1,4.281,4.191V45.82a4.134,4.134,0,0,1-4.112,4.173M24.137,1.675l-3.614,0-.975,1.944A2.491,2.491,0,0,1,17.3,5.005h-6.25A2.5,2.5,0,0,1,8.792,3.614l-.975-1.94-3.54-.007A2.537,2.537,0,0,0,1.669,4.3l0,41.525a2.5,2.5,0,0,0,2.507,2.513H24.161a2.5,2.5,0,0,0,2.507-2.513V4.19a2.5,2.5,0,0,0-2.532-2.515" fill="#003478"/>
    <path id="Path_2" data-name="Path 2" d="M18.382,46.667l-8.374,0a.834.834,0,1,1,0-1.667h8.325a.832.832,0,0,1,.05,1.663" fill="#003478"/>
    <path id="Path_3" data-name="Path 3" d="M7.194,24.127V21.789h1.76v.458H7.7v.474H8.8v.457H7.7v.491H8.971v.458Z" fill="#003478"/>
    <path id="Path_4" data-name="Path 4" d="M10.426,24.127v-.193a.7.7,0,0,1-.224.165.735.735,0,0,1-.317.061.812.812,0,0,1-.239-.034.575.575,0,0,1-.195-.106.524.524,0,0,1-.132-.172.542.542,0,0,1-.048-.235v-.006a.567.567,0,0,1,.053-.254.483.483,0,0,1,.149-.177A.652.652,0,0,1,9.7,23.07a1.152,1.152,0,0,1,.292-.035,1.286,1.286,0,0,1,.239.02,1.347,1.347,0,0,1,.2.054v-.03a.306.306,0,0,0-.1-.244.429.429,0,0,0-.287-.083,1.182,1.182,0,0,0-.26.025,1.708,1.708,0,0,0-.235.071l-.127-.387a1.922,1.922,0,0,1,.308-.1,1.65,1.65,0,0,1,.387-.04.7.7,0,0,1,.8.772v1.038Zm.01-.721a.778.778,0,0,0-.148-.048.76.76,0,0,0-.176-.019.446.446,0,0,0-.257.064.208.208,0,0,0-.094.183v.007a.186.186,0,0,0,.078.16.327.327,0,0,0,.2.057.449.449,0,0,0,.289-.087.277.277,0,0,0,.108-.227Z" fill="#003478"/>
    <path id="Path_5" data-name="Path 5" d="M12.616,23.841a.468.468,0,0,1-.145.178.666.666,0,0,1-.219.106,1.006,1.006,0,0,1-.269.035,1.259,1.259,0,0,1-.389-.065,1.246,1.246,0,0,1-.379-.206l.217-.334a1.165,1.165,0,0,0,.293.16.776.776,0,0,0,.271.054.277.277,0,0,0,.162-.037.111.111,0,0,0,.052-.1v-.007a.094.094,0,0,0-.03-.07.246.246,0,0,0-.081-.052,1.24,1.24,0,0,0-.119-.042l-.14-.043c-.063-.018-.126-.04-.189-.065a.7.7,0,0,1-.172-.1.477.477,0,0,1-.125-.152.45.45,0,0,1-.049-.22v-.007a.538.538,0,0,1,.052-.242.52.52,0,0,1,.14-.178.606.606,0,0,1,.207-.111.88.88,0,0,1,.256-.036,1.141,1.141,0,0,1,.346.055,1.287,1.287,0,0,1,.322.152l-.194.35a1.721,1.721,0,0,0-.26-.122.684.684,0,0,0-.224-.044.241.241,0,0,0-.141.034.107.107,0,0,0-.046.089v.007a.088.088,0,0,0,.03.065.317.317,0,0,0,.08.053.973.973,0,0,0,.115.048c.044.016.09.032.139.047s.125.044.19.072a.8.8,0,0,1,.174.1.515.515,0,0,1,.127.147.418.418,0,0,1,.05.21v.007a.59.59,0,0,1-.052.259" fill="#003478"/>
    <path id="Path_6" data-name="Path 6" d="M13.86,24.128a.8.8,0,0,1-.224.028.817.817,0,0,1-.212-.025.384.384,0,0,1-.164-.088.437.437,0,0,1-.107-.166.752.752,0,0,1-.038-.258v-.848H12.9v-.435h.214v-.457h.507v.457h.421v.435h-.421v.765c0,.115.055.173.164.173a.512.512,0,0,0,.251-.064v.408a.827.827,0,0,1-.177.075" fill="#003478"/>
    <path id="Path_7" data-name="Path 7" d="M16.642,24.127v-1a.416.416,0,0,0-.077-.272.274.274,0,0,0-.22-.091.29.29,0,0,0-.226.091.4.4,0,0,0-.081.272v1H15.53v-1a.416.416,0,0,0-.077-.272.274.274,0,0,0-.22-.091.292.292,0,0,0-.226.091.4.4,0,0,0-.082.272v1h-.507v-1.79h.507v.256a1.1,1.1,0,0,1,.1-.11.654.654,0,0,1,.115-.092.558.558,0,0,1,.142-.064.658.658,0,0,1,.481.051.5.5,0,0,1,.2.211.82.82,0,0,1,.26-.213.723.723,0,0,1,.328-.073.585.585,0,0,1,.444.168.68.68,0,0,1,.161.491v1.165Z" fill="#003478"/>
    <path id="Path_8" data-name="Path 8" d="M18.638,24.127v-.193a.7.7,0,0,1-.224.165.735.735,0,0,1-.317.061.812.812,0,0,1-.239-.034.575.575,0,0,1-.195-.106.524.524,0,0,1-.132-.172.542.542,0,0,1-.048-.235v-.006a.567.567,0,0,1,.053-.254.483.483,0,0,1,.149-.177.652.652,0,0,1,.227-.106,1.152,1.152,0,0,1,.292-.035,1.286,1.286,0,0,1,.239.02,1.347,1.347,0,0,1,.2.054v-.03a.306.306,0,0,0-.1-.244.429.429,0,0,0-.287-.083,1.182,1.182,0,0,0-.26.025,1.708,1.708,0,0,0-.235.071l-.127-.387a1.922,1.922,0,0,1,.308-.1,1.65,1.65,0,0,1,.387-.04.7.7,0,0,1,.8.772v1.038Zm.01-.721a.778.778,0,0,0-.148-.048.76.76,0,0,0-.176-.019.446.446,0,0,0-.257.064.208.208,0,0,0-.094.183v.007a.186.186,0,0,0,.078.16.327.327,0,0,0,.2.057.449.449,0,0,0,.289-.087.277.277,0,0,0,.108-.227Z" fill="#003478"/>
    <path id="Path_9" data-name="Path 9" d="M20.7,24.127v-1a.405.405,0,0,0-.08-.272.29.29,0,0,0-.228-.091.3.3,0,0,0-.232.091.39.39,0,0,0-.085.272v1h-.507v-1.79h.507v.256a1.1,1.1,0,0,1,.1-.11.654.654,0,0,1,.115-.092.634.634,0,0,1,.763.09.7.7,0,0,1,.158.487v1.159Z" fill="#003478"/>
    <rect id="Rectangle_1" data-name="Rectangle 1" width="0.514" height="2.338" transform="translate(6.137 25.797)" fill="#003478"/>
    <rect id="Rectangle_2" data-name="Rectangle 2" width="1.029" height="0.488" transform="translate(7.122 26.855)" fill="#003478"/>
    <path id="Path_10" data-name="Path 10" d="M10.465,27.931a1.12,1.12,0,0,1-.213.132,1.073,1.073,0,0,1-.251.084,1.6,1.6,0,0,1-.308.028,1.215,1.215,0,0,1-.477-.093,1.188,1.188,0,0,1-.381-.256,1.15,1.15,0,0,1-.25-.383,1.207,1.207,0,0,1-.09-.47v-.007a1.215,1.215,0,0,1,.34-.853,1.147,1.147,0,0,1,.384-.261,1.257,1.257,0,0,1,.494-.095,1.524,1.524,0,0,1,.3.027,1.223,1.223,0,0,1,.246.073,1.03,1.03,0,0,1,.2.114,1.23,1.23,0,0,1,.174.147l-.327.377a1.245,1.245,0,0,0-.279-.194.722.722,0,0,0-.319-.07.651.651,0,0,0-.488.214.727.727,0,0,0-.14.232.8.8,0,0,0-.05.282v.007a.812.812,0,0,0,.05.284.741.741,0,0,0,.139.234.634.634,0,0,0,.213.158.648.648,0,0,0,.276.059.714.714,0,0,0,.339-.074,1.342,1.342,0,0,0,.276-.2l.327.331a1.766,1.766,0,0,1-.187.173" fill="#003478"/>
    <path id="Path_11" data-name="Path 11" d="M12.786,27.6a.935.935,0,0,1-.2.3.964.964,0,0,1-.308.2,1,1,0,0,1-.387.074A1.009,1.009,0,0,1,11.5,28.1a.938.938,0,0,1-.3-.2.926.926,0,0,1-.2-.294.9.9,0,0,1-.073-.362v-.007A.9.9,0,0,1,11,26.88a.929.929,0,0,1,.2-.3.976.976,0,0,1,.307-.2.986.986,0,0,1,.388-.074,1.009,1.009,0,0,1,.384.072.936.936,0,0,1,.306.2.926.926,0,0,1,.2.294.9.9,0,0,1,.074.362v.007a.9.9,0,0,1-.074.362m-.427-.362a.537.537,0,0,0-.033-.189.481.481,0,0,0-.1-.157.487.487,0,0,0-.15-.108.452.452,0,0,0-.191-.041.462.462,0,0,0-.195.039.454.454,0,0,0-.146.1.463.463,0,0,0-.091.155.54.54,0,0,0-.032.189v.007a.545.545,0,0,0,.033.189.493.493,0,0,0,.1.156.474.474,0,0,0,.149.109.44.44,0,0,0,.192.04.481.481,0,0,0,.195-.038.454.454,0,0,0,.146-.1.485.485,0,0,0,.091-.156.558.558,0,0,0,.032-.188Z" fill="#003478"/>
    <path id="Path_12" data-name="Path 12" d="M14.36,28.135v-1a.405.405,0,0,0-.08-.272.29.29,0,0,0-.228-.091.306.306,0,0,0-.232.091.39.39,0,0,0-.085.272v1h-.507v-1.79h.507V26.6a1.1,1.1,0,0,1,.1-.11.654.654,0,0,1,.115-.092.577.577,0,0,1,.14-.064.613.613,0,0,1,.173-.024.574.574,0,0,1,.45.178.7.7,0,0,1,.158.487v1.159Z" fill="#003478"/>
    <path id="Path_13" data-name="Path 13" d="M16.44,28.135v-1a.405.405,0,0,0-.08-.272.29.29,0,0,0-.228-.091.3.3,0,0,0-.232.091.39.39,0,0,0-.085.272v1h-.507v-1.79h.507V26.6a1.1,1.1,0,0,1,.1-.11.654.654,0,0,1,.115-.092.577.577,0,0,1,.14-.064.613.613,0,0,1,.173-.024.574.574,0,0,1,.45.178.7.7,0,0,1,.158.487v1.159Z" fill="#003478"/>
    <path id="Path_14" data-name="Path 14" d="M19.056,27.352c0,.018,0,.04,0,.064H17.805a.428.428,0,0,0,.152.262.456.456,0,0,0,.286.089.567.567,0,0,0,.227-.044.771.771,0,0,0,.207-.14l.291.257a.91.91,0,0,1-.308.246.967.967,0,0,1-.424.088,1.008,1.008,0,0,1-.372-.067.864.864,0,0,1-.3-.19.891.891,0,0,1-.195-.292.969.969,0,0,1-.07-.376v-.006a1,1,0,0,1,.065-.361.929.929,0,0,1,.182-.3.854.854,0,0,1,.638-.274.876.876,0,0,1,.387.081.784.784,0,0,1,.273.215.909.909,0,0,1,.16.311,1.3,1.3,0,0,1,.052.365v.007c0,.025,0,.046,0,.063m-.613-.529a.333.333,0,0,0-.257-.1.341.341,0,0,0-.259.1.511.511,0,0,0-.128.278h.764a.49.49,0,0,0-.12-.276" fill="#003478"/>
    <path id="Path_15" data-name="Path 15" d="M20.714,28.083a.9.9,0,0,1-.434.092.941.941,0,0,1-.373-.074.906.906,0,0,1-.3-.2.928.928,0,0,1-.194-.3.918.918,0,0,1-.07-.358v-.007a.936.936,0,0,1,.07-.361.949.949,0,0,1,.194-.3.911.911,0,0,1,.3-.2.94.94,0,0,1,.38-.074.974.974,0,0,1,.42.08.945.945,0,0,1,.294.221l-.31.334a.884.884,0,0,0-.179-.144.446.446,0,0,0-.229-.053.4.4,0,0,0-.175.038.452.452,0,0,0-.137.1.483.483,0,0,0-.09.156.554.554,0,0,0-.032.188v.007a.589.589,0,0,0,.032.194.458.458,0,0,0,.092.157.429.429,0,0,0,.33.143.461.461,0,0,0,.222-.051.933.933,0,0,0,.189-.139l.3.3a1.158,1.158,0,0,1-.3.235" fill="#003478"/>
    <path id="Path_16" data-name="Path 16" d="M22.171,28.136a.8.8,0,0,1-.224.028.817.817,0,0,1-.212-.025.384.384,0,0,1-.164-.088.437.437,0,0,1-.107-.166.751.751,0,0,1-.038-.258v-.848h-.214v-.435h.214v-.457h.507v.457h.421v.435h-.421v.765c0,.115.055.173.164.173a.512.512,0,0,0,.251-.064v.408a.826.826,0,0,1-.177.075" fill="#003478"/>
  </g>
</svg>
