<svg preserveAspectRatio="none" overflow="visible" style="display: block;" width="9" height="9" viewBox="0 0 9 9" fill="none" xmlns="http://www.w3.org/2000/svg">
<g id="Icon" clip-path="url(#clip0_0_4)">
<path id="Vector" d="M4.5 2.625V7.875" stroke="white" stroke-width="0.75" stroke-linecap="round" stroke-linejoin="round"/>
<path id="Vector_2" d="M1.125 6.75C1.02554 6.75 0.930161 6.71049 0.859835 6.64017C0.789509 6.56984 0.75 6.47446 0.75 6.375V1.5C0.75 1.40054 0.789509 1.30516 0.859835 1.23483C0.930161 1.16451 1.02554 1.125 1.125 1.125H3C3.39782 1.125 3.77936 1.28304 4.06066 1.56434C4.34196 1.84564 4.5 2.22718 4.5 2.625C4.5 2.22718 4.65804 1.84564 4.93934 1.56434C5.22064 1.28304 5.60218 1.125 6 1.125H7.875C7.97446 1.125 8.06984 1.16451 8.14017 1.23483C8.21049 1.30516 8.25 1.40054 8.25 1.5V6.375C8.25 6.47446 8.21049 6.56984 8.14017 6.64017C8.06984 6.71049 7.97446 6.75 7.875 6.75H5.625C5.32663 6.75 5.04048 6.86853 4.8295 7.0795C4.61853 7.29048 4.5 7.57663 4.5 7.875C4.5 7.57663 4.38147 7.29048 4.1705 7.0795C3.95952 6.86853 3.67337 6.75 3.375 6.75H1.125Z" stroke="white" stroke-width="0.75" stroke-linecap="round" stroke-linejoin="round"/>
</g>
<defs>
<clipPath id="clip0_0_4">
<rect width="9" height="9" fill="white"/>
</clipPath>
</defs>
</svg>
