<svg width="93" height="93" viewBox="0 0 93 93" fill="none" xmlns="http://www.w3.org/2000/svg">
<path d="M20.4635 6.92383V23.4175M72.7823 6.92383V23.4175M90.074 78.8398C90.074 82.1211 87.414 84.7811 84.1328 84.7811H9.11312C5.83186 84.7811 3.17188 82.1211 3.17188 78.8398V21.91C3.17188 18.6287 5.83186 15.9687 9.11312 15.9687H84.1328C87.4141 15.9687 90.074 18.6287 90.074 21.91V78.8398Z" stroke="#0E2F6F" stroke-width="3.02058" stroke-miterlimit="10"/>
<path d="M16.7414 37.6278C16.7414 37.3906 16.9337 37.1982 17.171 37.1982H27.3671C27.6044 37.1982 27.7967 37.3906 27.7967 37.6278V47.824C27.7967 48.0612 27.6044 48.2536 27.3671 48.2536H17.171C16.9337 48.2536 16.7414 48.0612 16.7414 47.824V37.6278ZM40.8457 37.6278C40.8457 37.3906 41.038 37.1982 41.2753 37.1982H51.4714C51.7087 37.1982 51.901 37.3906 51.901 37.6278V47.824C51.901 48.0612 51.7087 48.2536 51.4714 48.2536H41.2753C41.038 48.2536 40.8457 48.0612 40.8457 47.824V37.6278ZM16.6055 59.5573C16.6055 59.32 16.7978 59.1277 17.0351 59.1277H27.2312C27.4685 59.1277 27.6608 59.32 27.6608 59.5573V69.7534C27.6608 69.9907 27.4685 70.183 27.2312 70.183H17.0351C16.7978 70.183 16.6055 69.9907 16.6055 69.7534V59.5573Z" fill="#FFD60A" stroke="#FFD60A" stroke-width="2.41647" stroke-miterlimit="10"/>
<path d="M79.0391 50.8613L74.5479 47.8408L54.8164 70.6641L53.8486 71.3633L52.9785 70.5459L45.791 61.9648L38.6982 71.1924L36.0859 70.3555L44.7676 58.5137L45.7344 57.8154L46.6045 58.6328L53.7852 66.7246L71.6016 46.3887L66.6396 43.4863L79.6377 39.7637L79.0391 50.8613Z" fill="#0E2F6F"/>
</svg>
