<svg width="11" height="11" viewBox="0 0 11 11" fill="none" xmlns="http://www.w3.org/2000/svg">
<g clip-path="url(#clip0_622_18783)">
<path d="M4.86089 1.24103C4.8798 1.13982 4.9335 1.04842 5.0127 0.982642C5.0919 0.916866 5.19161 0.880859 5.29456 0.880859C5.39751 0.880859 5.49722 0.916866 5.57642 0.982642C5.65562 1.04842 5.70932 1.13982 5.72823 1.24103L6.19189 3.69303C6.22482 3.86736 6.30954 4.02771 6.43499 4.15315C6.56044 4.2786 6.72079 4.36332 6.89511 4.39625L9.34712 4.85992C9.44832 4.87882 9.53972 4.93252 9.6055 5.01172C9.67128 5.09092 9.70728 5.19063 9.70728 5.29358C9.70728 5.39654 9.67128 5.49625 9.6055 5.57545C9.53972 5.65465 9.44832 5.70835 9.34712 5.72725L6.89511 6.19092C6.72079 6.22385 6.56044 6.30857 6.43499 6.43401C6.30954 6.55946 6.22482 6.71981 6.19189 6.89414L5.72823 9.34614C5.70932 9.44734 5.65562 9.53875 5.57642 9.60452C5.49722 9.6703 5.39751 9.70631 5.29456 9.70631C5.19161 9.70631 5.0919 9.6703 5.0127 9.60452C4.9335 9.53875 4.8798 9.44734 4.86089 9.34614L4.39723 6.89414C4.3643 6.71981 4.27958 6.55946 4.15413 6.43401C4.02868 6.30857 3.86833 6.22385 3.69401 6.19092L1.242 5.72725C1.1408 5.70835 1.0494 5.65465 0.983619 5.57545C0.917842 5.49625 0.881836 5.39654 0.881836 5.29358C0.881836 5.19063 0.917842 5.09092 0.983619 5.01172C1.0494 4.93252 1.1408 4.87882 1.242 4.85992L3.69401 4.39625C3.86833 4.36332 4.02868 4.2786 4.15413 4.15315C4.27958 4.02771 4.3643 3.86736 4.39723 3.69303L4.86089 1.24103Z" stroke="#FFDF28" stroke-width="0.882333" stroke-linecap="round" stroke-linejoin="round"/>
<path d="M8.82324 0.882812V2.64748" stroke="#FFDF28" stroke-width="0.882333" stroke-linecap="round" stroke-linejoin="round"/>
<path d="M9.70607 1.76367H7.94141" stroke="#FFDF28" stroke-width="0.882333" stroke-linecap="round" stroke-linejoin="round"/>
<path d="M1.76417 9.70607C2.25147 9.70607 2.6465 9.31104 2.6465 8.82374C2.6465 8.33644 2.25147 7.94141 1.76417 7.94141C1.27687 7.94141 0.881836 8.33644 0.881836 8.82374C0.881836 9.31104 1.27687 9.70607 1.76417 9.70607Z" stroke="#FFDF28" stroke-width="0.882333" stroke-linecap="round" stroke-linejoin="round"/>
</g>
<defs>
<clipPath id="clip0_622_18783">
<rect width="10.588" height="10.588" fill="white"/>
</clipPath>
</defs>
</svg>
