<svg width="90" height="83" viewBox="0 0 90 83" fill="none" xmlns="http://www.w3.org/2000/svg">
<g clip-path="url(#clip0_622_18178)">
<path d="M65.8737 26.3496H63.0321C62.6895 26.3496 62.361 26.4857 62.1188 26.7279C61.8765 26.9702 61.7404 27.2987 61.7404 27.6413C61.7404 27.9838 61.8765 28.3124 62.1188 28.5546C62.361 28.7968 62.6895 28.9329 63.0321 28.9329H65.8737C66.2163 28.9329 66.5448 28.7968 66.787 28.5546C67.0293 28.3124 67.1653 27.9838 67.1653 27.6413C67.1653 27.2987 67.0293 26.9702 66.787 26.7279C66.5448 26.4857 66.2163 26.3496 65.8737 26.3496ZM16.533 28.9329H19.3746C19.7172 28.9329 20.0457 28.7968 20.2879 28.5546C20.5301 28.3124 20.6662 27.9838 20.6662 27.6413C20.6662 27.2987 20.5301 26.9702 20.2879 26.7279C20.0457 26.4857 19.7172 26.3496 19.3746 26.3496H16.533C16.1904 26.3496 15.8619 26.4857 15.6196 26.7279C15.3774 26.9702 15.2413 27.2987 15.2413 27.6413C15.2413 27.9838 15.3774 28.3124 15.6196 28.5546C15.8619 28.7968 16.1904 28.9329 16.533 28.9329Z" fill="#FFD60A"/>
<path d="M78.5318 32.42L71.8153 29.8367C74.6569 25.3806 74.2694 17.889 74.2048 16.8557V16.7266C73.4298 12.1412 70.2653 9.7517 64.7758 9.7517C62.3175 9.6625 59.8954 10.3642 57.8656 11.7537C56.607 12.6057 55.7095 13.8945 55.3469 15.3703C54.5073 19.6328 54.8948 24.1535 56.4447 27.5764L56.8322 28.3513L56.9614 28.5451L57.2843 29.0618L57.4135 29.2555L57.6718 29.643L51.149 32.2263C51.7214 32.9129 52.1993 33.6731 52.5698 34.4866L59.6093 31.7742L60.0613 32.0971L60.7072 32.4846C60.7017 32.6379 60.7235 32.791 60.7717 32.9367L62.0634 35.3908H67.0362L68.3279 32.9367V32.8075C68.8826 32.6046 69.4048 32.3217 69.8778 31.9679L77.4985 34.8741C78.224 35.1601 78.8463 35.6582 79.2841 36.3034C79.722 36.9487 79.955 37.711 79.9526 38.4907V49.0822H69.4258L66.907 37.8449H62.3863L60.3197 49.0822H52.3761L52.1823 49.728L56.1864 51.278L57.026 51.6655H81.3734C81.716 51.6655 82.0445 51.5294 82.2868 51.2872C82.529 51.0449 82.6651 50.7164 82.6651 50.3738V38.4262C82.6525 37.1273 82.2523 35.8617 81.516 34.7917C80.7796 33.7216 79.7405 32.8958 78.5318 32.42ZM68.3279 29.9013H68.2633L67.8112 30.1596H67.682L67.1654 30.3534C63.1613 31.4513 60.4488 30.2242 58.7051 26.4785L58.4468 25.8972V25.7681L58.1885 25.0577L57.9947 24.2827V24.0889L57.801 23.2494C59.4977 22.5925 60.8668 21.2929 61.6113 19.6328C63.4196 20.8598 66.7133 22.1515 71.6215 20.5369C71.6215 21.0536 71.557 21.5056 71.4924 22.0223V22.7327L71.3632 23.5077L71.234 24.1535L71.1049 24.8639L70.9111 25.4452V25.5743L70.7174 26.2201V26.3493L70.5236 26.866V26.9951L70.2653 27.5764H70.2007L69.9424 28.0284V28.1576L69.6195 28.6097H69.5549L69.232 28.9972L69.1028 29.1263L68.3279 29.9013ZM26.4787 51.278L30.7411 49.6634L30.5473 49.0822H22.9266L20.4079 37.8449H15.8226L13.8206 49.0822H2.58328V38.4262C2.58096 37.6464 2.81395 36.8841 3.25178 36.2388C3.68962 35.5936 4.31195 35.0955 5.0374 34.8096L13.1102 31.7096L14.2726 32.42C14.2671 32.5734 14.289 32.7264 14.3372 32.8721L15.5643 35.3262H20.6017L21.8287 32.8721V32.7429H22.1517L22.6037 32.5492H22.7329L23.185 32.2909H23.2496L23.3787 32.1617L30.0307 34.745C30.4197 33.8187 30.9659 32.9665 31.6452 32.2263L25.3808 29.8367C27.3182 26.7368 27.7703 22.216 27.8349 19.2453C27.8349 17.889 27.7703 16.9203 27.7703 16.7912V16.0162L27.6411 15.6287L27.512 15.2412L27.3828 14.8537L27.2536 14.5308L27.0599 14.1433L26.9307 13.885L26.737 13.4975L26.6078 13.2391L26.3495 12.8516L26.1557 12.6579L25.8974 12.335L25.7037 12.1412L25.3808 11.8183L25.187 11.6246L24.8641 11.3663L24.6058 11.1725L24.2183 10.9788L23.96 10.8496L23.5725 10.6559L23.2496 10.5267L22.8621 10.3975L22.4746 10.2684L22.0871 10.1392L21.635 10.01H18.2767C15.8184 9.92083 13.3963 10.6226 11.3664 12.0121C10.1079 12.864 9.2104 14.1528 8.84775 15.6287C8.00818 19.8911 8.39567 24.4118 9.94564 27.8347C10.2982 28.4942 10.7089 29.1209 11.1727 29.7076L4.13325 32.42C2.92458 32.8958 1.88549 33.7216 1.14912 34.7917C0.412739 35.8617 0.0126113 37.1273 0 38.4262L0 50.3738C0 50.7164 0.136083 51.0449 0.378313 51.2872C0.620543 51.5294 0.949077 51.6655 1.29164 51.6655H25.6391L26.4787 51.278ZM12.0123 25.8326V25.7035C11.8332 25.1955 11.6823 24.6781 11.5602 24.1535L11.3664 23.2494C12.9262 22.5346 14.1679 21.27 14.8539 19.6973C16.7268 20.9244 20.1496 22.216 25.187 20.4723C25.187 21.0536 25.1224 21.5702 25.0579 22.1515L24.9287 22.9265L24.7995 23.5723V23.766L24.6704 24.4764C24.1537 26.8014 23.2496 28.8034 21.8287 29.7722L21.4413 30.0305H21.3121L20.86 30.2242C16.8559 31.3221 14.1435 30.0951 12.3998 26.3493L12.0123 25.8326Z" fill="#0E2F6F"/>
<path d="M55.2827 53.7326L48.5662 51.1494C51.537 46.4995 51.0203 38.4913 50.9557 38.1038V37.9746C50.1807 33.3247 47.0162 30.9998 41.5267 30.9998C39.0684 30.9106 36.6463 31.6123 34.6164 33.0018C33.3579 33.8538 32.4604 35.1425 32.0977 36.6184C31.2582 40.8808 31.6457 45.4016 33.1956 48.8244C33.5304 49.5955 33.9414 50.3311 34.4227 51.0202L27.3833 53.7326C26.1746 54.2084 25.1355 55.0343 24.3991 56.1043C23.6627 57.1744 23.2626 58.4399 23.25 59.7388V71.6865C23.25 72.029 23.3861 72.3576 23.6283 72.5998C23.8705 72.842 24.1991 72.9781 24.5416 72.9781H58.1243C58.4669 72.9781 58.7954 72.842 59.0377 72.5998C59.2799 72.3576 59.416 72.029 59.416 71.6865V59.7388C59.4034 58.4399 59.0032 57.1744 58.2669 56.1043C57.5305 55.0343 56.4914 54.2084 55.2827 53.7326ZM45.0788 51.1494H45.0142L44.5621 51.4077H44.4329L43.9163 51.6014C39.9122 52.6993 37.1997 51.4723 35.456 47.7265L35.1977 47.1453V47.0161L34.9394 46.3057L34.7456 45.5307V45.337L34.5519 44.4974C36.2486 43.8405 37.6177 42.541 38.3622 40.8808C40.1705 42.1079 43.4642 43.3995 48.3724 41.785C48.3724 42.3016 48.3079 42.7537 48.2433 43.2703V43.9808L48.1141 44.7557L47.9849 45.4016L47.8558 46.112L47.662 46.6932V46.8224L47.4683 47.4682V47.5973L47.2745 48.114V48.2432L47.0162 48.8244H46.9516L46.6933 49.2765V49.4056L46.3704 49.8577H46.3058L45.9829 50.2452L45.8537 50.3744L45.0788 51.1494ZM56.8327 70.3948H46.1766L43.5934 59.4159H39.1372L37.0706 70.3948H25.8333V59.7388C25.831 58.959 26.0639 58.1967 26.5018 57.5515C26.9396 56.9062 27.5619 56.4081 28.2874 56.1222L36.3602 53.0222L37.5226 53.7326C37.5171 53.886 37.539 54.0391 37.5872 54.1847L39.1372 56.8326H43.5934L45.1433 54.1847V54.0556C45.6981 53.8526 46.2202 53.5698 46.6933 53.216L54.314 56.1222C55.0515 56.3977 55.6876 56.8914 56.1376 57.5375C56.5875 58.1836 56.83 58.9515 56.8327 59.7388V70.3948Z" fill="#0E2F6F"/>
<path d="M42.6245 47.6611H39.7829C39.4403 47.6611 39.1118 47.7972 38.8695 48.0394C38.6273 48.2817 38.4912 48.6102 38.4912 48.9528C38.4912 49.2953 38.6273 49.6239 38.8695 49.8661C39.1118 50.1083 39.4403 50.2444 39.7829 50.2444H42.6245C42.967 50.2444 43.2956 50.1083 43.5378 49.8661C43.78 49.6239 43.9161 49.2953 43.9161 48.9528C43.9161 48.6102 43.78 48.2817 43.5378 48.0394C43.2956 47.7972 42.967 47.6611 42.6245 47.6611Z" fill="#FFD60A"/>
</g>
<defs>
<clipPath id="clip0_622_18178">
<rect width="89.7959" height="82.6651" fill="white"/>
</clipPath>
</defs>
</svg>
