<svg preserveAspectRatio="none" width="100%" height="100%" overflow="visible" style="display: block;" viewBox="0 0 24 24" fill="none" xmlns="http://www.w3.org/2000/svg">
<g id="ei:navicon">
<rect width="24" height="24" rx="4" fill="var(--fill-0, #F5F7FA)"/>
<path id="Vector" d="M4.8 6.72C4.8 6.18981 5.22981 5.76 5.76 5.76H18.24C18.7702 5.76 19.2 6.18981 19.2 6.72C19.2 7.25019 18.7702 7.68 18.24 7.68H5.76C5.22981 7.68 4.8 7.25019 4.8 6.72ZM4.8 11.52C4.8 10.9898 5.22981 10.56 5.76 10.56H18.24C18.7702 10.56 19.2 10.9898 19.2 11.52C19.2 12.0502 18.7702 12.48 18.24 12.48H5.76C5.22981 12.48 4.8 12.0502 4.8 11.52ZM4.8 16.32C4.8 15.7898 5.22981 15.36 5.76 15.36H18.24C18.7702 15.36 19.2 15.7898 19.2 16.32C19.2 16.8502 18.7702 17.28 18.24 17.28H5.76C5.22981 17.28 4.8 16.8502 4.8 16.32Z" fill="var(--fill-0, #0E2F6F)"/>
</g>
</svg>
