<svg width="20" height="20" viewBox="0 0 20 20" fill="none" xmlns="http://www.w3.org/2000/svg">
<g clip-path="url(#clip0_622_17836)">
<path d="M10 16.667V18.3337" stroke="#011B35" stroke-width="1.66667" stroke-linecap="round" stroke-linejoin="round"/>
<path d="M10 1.66699V3.33366" stroke="#011B35" stroke-width="1.66667" stroke-linecap="round" stroke-linejoin="round"/>
<path d="M14.1665 16.667V18.3337" stroke="#011B35" stroke-width="1.66667" stroke-linecap="round" stroke-linejoin="round"/>
<path d="M14.1665 1.66699V3.33366" stroke="#011B35" stroke-width="1.66667" stroke-linecap="round" stroke-linejoin="round"/>
<path d="M1.66675 10H3.33341" stroke="#011B35" stroke-width="1.66667" stroke-linecap="round" stroke-linejoin="round"/>
<path d="M1.6665 14.167H3.33317" stroke="#011B35" stroke-width="1.66667" stroke-linecap="round" stroke-linejoin="round"/>
<path d="M1.6665 5.83301H3.33317" stroke="#011B35" stroke-width="1.66667" stroke-linecap="round" stroke-linejoin="round"/>
<path d="M16.6667 10H18.3334" stroke="#011B35" stroke-width="1.66667" stroke-linecap="round" stroke-linejoin="round"/>
<path d="M16.6665 14.167H18.3332" stroke="#011B35" stroke-width="1.66667" stroke-linecap="round" stroke-linejoin="round"/>
<path d="M16.6665 5.83301H18.3332" stroke="#011B35" stroke-width="1.66667" stroke-linecap="round" stroke-linejoin="round"/>
<path d="M5.8335 16.667V18.3337" stroke="#011B35" stroke-width="1.66667" stroke-linecap="round" stroke-linejoin="round"/>
<path d="M5.8335 1.66699V3.33366" stroke="#011B35" stroke-width="1.66667" stroke-linecap="round" stroke-linejoin="round"/>
<path d="M15.0002 3.33301H5.00016C4.07969 3.33301 3.3335 4.0792 3.3335 4.99967V14.9997C3.3335 15.9201 4.07969 16.6663 5.00016 16.6663H15.0002C15.9206 16.6663 16.6668 15.9201 16.6668 14.9997V4.99967C16.6668 4.0792 15.9206 3.33301 15.0002 3.33301Z" stroke="#011B35" stroke-width="1.66667" stroke-linecap="round" stroke-linejoin="round"/>
<path d="M12.4998 6.66699H7.49984C7.0396 6.66699 6.6665 7.04009 6.6665 7.50033V12.5003C6.6665 12.9606 7.0396 13.3337 7.49984 13.3337H12.4998C12.9601 13.3337 13.3332 12.9606 13.3332 12.5003V7.50033C13.3332 7.04009 12.9601 6.66699 12.4998 6.66699Z" stroke="#011B35" stroke-width="1.66667" stroke-linecap="round" stroke-linejoin="round"/>
</g>
<defs>
<clipPath id="clip0_622_17836">
<rect width="20" height="20" fill="white"/>
</clipPath>
</defs>
</svg>
