<svg width="93" height="93" viewBox="0 0 93 93" fill="none" xmlns="http://www.w3.org/2000/svg">
<g clip-path="url(#clip0_622_18195)">
<g clip-path="url(#clip1_622_18195)">
<path d="M69.6926 0.924835C69.6532 0.403188 69.2185 0 68.6954 0H58.6027C58.0722 0 57.634 0.414232 57.6042 0.943878L57.2745 6.81073C57.2422 7.38417 57.6985 7.86685 58.2729 7.86685H69.1376C69.7195 7.86685 70.1785 7.37194 70.1348 6.79169L69.6926 0.924835Z" fill="#FFD60A"/>
<path d="M70.5289 11.8295C70.4898 11.3077 70.055 10.9043 69.5317 10.9043H57.9942C57.4636 10.9043 57.0253 11.3188 56.9958 11.8486L56.668 17.73C56.636 18.3033 57.0923 18.7856 57.6664 18.7856H69.9732C70.5549 18.7856 71.0139 18.2909 70.9704 17.7108L70.5289 11.8295Z" fill="#FFD60A"/>
<path d="M62.2722 36.3285C62.7594 36.6315 63.0305 37.1607 63.003 37.7247L62.3038 49.9115C62.2578 50.7137 63.1289 51.2399 63.8175 50.8258L72.5263 45.5889C72.8502 45.394 73.0367 45.0332 73.0081 44.6562L71.3459 22.7486C71.3063 22.2271 70.8717 21.8242 70.3488 21.8242H57.3878C56.8573 21.8242 56.4192 22.2385 56.3894 22.7682L55.5587 37.5684C55.5138 38.367 56.3782 38.8925 57.0665 38.485L60.7093 36.3285C61.1935 36.0385 61.8025 36.0385 62.2722 36.3285Z" fill="#FFD60A"/>
<path d="M39.3667 23.522C39.3271 23.0005 38.8924 22.5977 38.3695 22.5977H29.0647C28.5338 22.5977 28.0954 23.0126 28.0662 23.5427L27.8254 27.9221C27.7938 28.4951 28.25 28.977 28.8238 28.977H38.702C39.2841 28.977 39.7431 28.4817 39.6991 27.9013L39.3667 23.522Z" fill="#FFD60A"/>
<path d="M38.652 14.106C38.6124 13.5845 38.1778 13.1816 37.6549 13.1816H29.5959C29.0648 13.1816 28.6263 13.5968 28.5974 14.1272L28.3585 18.5065C28.3273 19.0793 28.7834 19.561 29.3571 19.561H37.9873C38.5694 19.561 39.0285 19.0657 38.9845 18.4853L38.652 14.106Z" fill="#FFD60A"/>
<path d="M34.8905 36.3883C35.3312 36.6913 35.5748 37.2089 35.5429 37.7396L34.7028 49.9011C34.6473 50.7051 35.517 51.2412 36.2103 50.8302L40.6734 48.1847C41.0005 47.9909 41.1893 47.6283 41.1607 47.2492L40.0797 32.9374C40.0403 32.4158 39.6056 32.0127 39.0826 32.0127H28.5468C28.016 32.0127 27.5777 32.4274 27.5483 32.9574L27.2997 37.4463C27.258 38.1992 28.0329 38.7256 28.7175 38.4095L33.3884 36.252C33.8727 36.023 34.4352 36.0679 34.8905 36.3883Z" fill="#FFD60A"/>
<path d="M12.3897 87.5518H7.55005C6.44548 87.5518 5.55005 88.4472 5.55005 89.5518V90.79C5.55005 91.8946 6.44548 92.79 7.55005 92.79H12.3897C13.4943 92.79 14.3897 91.8946 14.3897 90.79V89.5518C14.3897 88.4472 13.4943 87.5518 12.3897 87.5518Z" fill="#0E2F6F"/>
<path d="M85.2399 87.5518H46.3071C45.2026 87.5518 44.3071 88.4472 44.3071 89.5518V90.79C44.3071 91.8946 45.2026 92.79 46.3071 92.79H85.2399C86.3445 92.79 87.2399 91.8946 87.2399 90.79V89.5518C87.2399 88.4472 86.3445 87.5518 85.2399 87.5518Z" fill="#0E2F6F"/>
<path d="M21.4272 74.5127H37.27C38.3745 74.5127 39.27 75.4082 39.27 76.5127V90.79H19.4272V76.5127C19.4272 75.4081 20.3227 74.5127 21.4272 74.5127Z" stroke="#FFD60A" stroke-width="4"/>
<path d="M29.3394 54.3174C29.2357 55.6692 29.9253 56.8763 30.9438 57.5479L30.9897 57.5781L31.0376 57.6064C31.6033 57.9359 32.2449 58.0957 32.8579 58.0957C33.4738 58.0957 34.0853 57.9261 34.605 57.6338L34.6255 57.623L34.645 57.6113L44.4048 51.8193C44.4991 51.7703 44.5744 51.7192 44.6323 51.6787L57.5952 44.0117L56.9985 54.3691V54.3828C56.9344 55.6386 57.5368 56.8745 58.6499 57.5654V57.5674C58.656 57.5713 58.6633 57.5743 58.6694 57.5781C58.6757 57.582 58.6817 57.587 58.688 57.5908V57.5898C59.8824 58.3255 61.2669 58.1845 62.272 57.626L62.3013 57.6104L62.3296 57.5928L85.2417 43.8389V82.5127H46.313V70.9854C46.313 69.0225 44.7317 67.4787 42.7896 67.4785H15.9087C13.9936 67.4787 12.3862 69.0114 12.3862 70.9854V82.5127H7.55713V53.7051L26.5151 44.958H26.5425L26.9429 44.7725L30.0942 43.3105L29.3394 54.3174ZM79.8032 69.2305C78.6328 69.2306 77.5806 69.8026 76.937 70.6953C76.3216 69.8465 75.339 69.2892 74.2524 69.2344L74.0757 69.2305C72.9037 69.2305 71.8535 69.8024 71.2114 70.6934C70.6023 69.8484 69.6269 69.2904 68.5278 69.2354L68.3481 69.2305C67.1661 69.2306 66.121 69.8023 65.4819 70.6895C64.871 69.8459 63.895 69.2893 62.7993 69.2344L62.6196 69.2305C61.4357 69.2306 60.3937 69.8034 59.7563 70.6895C59.1454 69.8459 58.1695 69.2892 57.0737 69.2344L56.895 69.2305C55.7095 69.2305 54.6615 69.8057 54.0229 70.6973C53.418 69.8522 52.4462 69.2907 51.3335 69.2354L51.1519 69.2305C49.2535 69.2305 47.6316 70.7618 47.6313 72.7393V78.8711C47.6314 80.8252 49.231 82.3945 51.1519 82.3945C52.3508 82.3945 53.3896 81.8082 54.0229 80.917C54.6573 81.809 55.6986 82.3945 56.895 82.3945C58.0738 82.3944 59.1167 81.8144 59.7563 80.9248C60.3895 81.8114 61.4249 82.3944 62.6196 82.3945C63.7989 82.3945 64.8422 81.8139 65.4819 80.9238C66.1167 81.8119 67.1549 82.3944 68.3481 82.3945C69.5313 82.3945 70.5736 81.8114 71.2114 80.9199C71.8492 81.8117 72.8924 82.3945 74.0757 82.3945C75.244 82.3944 76.2932 81.8142 76.937 80.9199C77.5763 81.8126 78.622 82.3944 79.8032 82.3945C81.7462 82.3945 83.31 80.8016 83.3101 78.8711V72.7393C83.3098 70.8453 81.8195 69.3286 79.9829 69.2354L79.8032 69.2305Z" stroke="#0E2F6F" stroke-width="4"/>
</g>
</g>
<defs>
<clipPath id="clip0_622_18195">
<rect width="92.79" height="92.79" fill="white"/>
</clipPath>
<clipPath id="clip1_622_18195">
<rect width="92.79" height="92.79" fill="white"/>
</clipPath>
</defs>
</svg>
