<svg preserveAspectRatio="none" width="100%" height="100%" overflow="visible" style="display: block;" viewBox="0 0 14.7505 14.6513" fill="none" xmlns="http://www.w3.org/2000/svg">
<path id="Vector" d="M2.98787 0.305335C3.16888 0.226851 3.42363 0.160744 3.69881 0.228187L3.82185 0.266273C4.09531 0.373303 4.29728 0.601589 4.43318 0.909827L5.75545 3.43229C5.80061 3.49418 5.8755 3.60942 5.93221 3.76627L5.98494 3.9528V3.95475C6.04826 4.27329 6.01831 4.74404 5.5699 5.20866L5.55232 5.22623L4.97713 5.75651C5.04518 5.88343 5.37715 6.48857 5.96736 7.22037H5.96639C6.56217 7.95852 7.5445 8.97183 8.86287 9.67155C8.90192 9.66491 8.98272 9.64154 9.08553 9.53873L9.09139 9.53287L9.61189 9.03385C9.67895 8.95026 9.82611 8.79783 10.067 8.69791C10.354 8.57997 10.8048 8.52744 11.3961 8.8278L11.4088 8.83463L11.4215 8.84049H11.4205L13.9244 10.3092C14.0478 10.3684 14.4453 10.5879 14.5338 11.0514L14.5504 11.2067C14.5584 11.5661 14.3588 11.915 14.025 12.2409L12.4029 13.8805C12.2623 14.0763 11.8608 14.4508 10.901 14.4508C10.5843 14.4508 10.2082 14.4109 9.76033 14.3102L9.75252 14.3092L9.73982 14.3063C9.66091 14.2851 8.07128 13.8552 6.12556 12.5172V12.5163C4.98238 11.7309 3.95475 10.7943 3.06795 9.73014C1.963 8.40256 1.07799 6.87448 0.437088 5.1901V5.18912C0.396748 5.09644 0.257169 4.74918 0.213455 4.28776C0.145339 3.57985 0.334386 2.92534 0.767166 2.40592L0.774002 2.39811L0.780838 2.38932L0.796463 2.37369L2.62654 0.529944L2.6324 0.523108L2.64021 0.517249L2.64998 0.50846C2.68514 0.478879 2.81012 0.382461 2.98787 0.305335ZM3.48982 1.07975C3.46594 1.07395 3.41736 1.07777 3.34822 1.10612C3.29164 1.12932 3.24333 1.16026 3.21931 1.17741L1.43416 2.97526C1.16255 3.30581 1.04318 3.71021 1.0865 4.19108C1.10326 4.3796 1.1431 4.544 1.17928 4.66178C1.19731 4.72047 1.21398 4.76782 1.22615 4.79948C1.23218 4.81514 1.23736 4.82726 1.2408 4.83561C1.24166 4.8377 1.24301 4.83972 1.24373 4.84147C1.24438 4.84304 1.24508 4.84489 1.24568 4.84635C1.24617 4.84753 1.24671 4.84985 1.24764 4.85221L1.25447 4.86784L1.25545 4.87174C2.62701 8.48813 4.93214 10.6322 6.62166 11.7946L6.95271 12.0153C8.58692 13.0721 9.89194 13.4381 9.95955 13.4557H9.95857C10.8219 13.6477 11.2796 13.5668 11.4937 13.485C11.581 13.4518 11.6352 13.4164 11.6646 13.3932C11.6748 13.3852 11.6814 13.3773 11.6861 13.3727L11.692 13.3639L11.7056 13.3376L11.7262 13.3171L13.4019 11.6188L13.4049 11.6159C13.5125 11.5104 13.5847 11.4171 13.6265 11.3415C13.6692 11.2643 13.6693 11.2251 13.6676 11.2145C13.6652 11.2024 13.6517 11.1753 13.6099 11.1413C13.5768 11.1143 13.5442 11.0982 13.5387 11.0954H13.5377L13.5289 11.0915L13.5123 11.0846L13.4976 11.0758L13.4849 11.0671H13.484L10.9869 9.60221C10.698 9.45643 10.524 9.4669 10.4332 9.49284C10.3497 9.51674 10.3077 9.56155 10.2984 9.57291L10.2896 9.58854L10.272 9.61686L10.2467 9.63737L10.233 9.64811L9.69978 10.1608L9.69881 10.1598C9.19531 10.6594 8.7024 10.5473 8.61775 10.5231L8.59529 10.5172L8.57478 10.5114L8.55623 10.5006L8.53474 10.4899V10.4889C7.03399 9.7156 5.93196 8.57617 5.27498 7.75944V7.75846C4.60054 6.91932 4.24244 6.24771 4.19099 6.14811C4.06093 5.91446 4.05103 5.68576 4.11385 5.49186C4.17131 5.31463 4.28707 5.17569 4.40681 5.08659L4.94392 4.59049C5.12465 4.39981 5.14106 4.24545 5.12752 4.14616C5.11271 4.03776 5.0573 3.96194 5.04549 3.94694L5.03377 3.93522L5.01521 3.91471L5.00252 3.88932L4.9908 3.86686V3.86588L3.64607 1.29948L3.63826 1.2858L3.63338 1.27018C3.56538 1.11425 3.50663 1.0839 3.48982 1.07975Z" fill="var(--fill-0, #18408C)" stroke="var(--stroke-0, #18408C)" stroke-width="0.4"/>
</svg>
