<svg preserveAspectRatio="none" width="100%" height="100%" overflow="visible" style="display: block;" viewBox="0 0 14 14" fill="none" xmlns="http://www.w3.org/2000/svg">
<g id="SVG">
<path id="Vector" d="M6.41667 4.08333L4.66667 7H7L5.25 9.91667" stroke="var(--stroke-0, #FFD60A)" stroke-width="1.16667" stroke-linecap="round" stroke-linejoin="round"/>
<path id="Vector_2" d="M8.666 3.5H9.33333C9.64275 3.5 9.9395 3.62292 10.1583 3.84171C10.3771 4.0605 10.5 4.35725 10.5 4.66667V9.33333C10.5 9.64275 10.3771 9.9395 10.1583 10.1583C9.9395 10.3771 9.64275 10.5 9.33333 10.5H7.62125" stroke="var(--stroke-0, #FFD60A)" stroke-width="1.16667" stroke-linecap="round" stroke-linejoin="round"/>
<path id="Vector_3" d="M12.8333 8.16667V5.83333" stroke="var(--stroke-0, #FFD60A)" stroke-width="1.16667" stroke-linecap="round" stroke-linejoin="round"/>
<path id="Vector_4" d="M2.99833 10.5H2.33333C2.02391 10.5 1.72717 10.3771 1.50838 10.1583C1.28958 9.9395 1.16667 9.64275 1.16667 9.33333V4.66667C1.16667 4.35725 1.28958 4.0605 1.50838 3.84171C1.72717 3.62292 2.02391 3.5 2.33333 3.5H4.046" stroke="var(--stroke-0, #FFD60A)" stroke-width="1.16667" stroke-linecap="round" stroke-linejoin="round"/>
</g>
</svg>
