<svg preserveAspectRatio="none" width="100%" height="100%" overflow="visible" style="display: block;" viewBox="0 0 14 14" fill="none" xmlns="http://www.w3.org/2000/svg">
<g id="SVG">
<path id="Vector" d="M10.7917 12.25C11.9192 12.25 12.8333 11.3359 12.8333 10.2083C12.8333 9.08075 11.9192 8.16667 10.7917 8.16667C9.66409 8.16667 8.75 9.08075 8.75 10.2083C8.75 11.3359 9.66409 12.25 10.7917 12.25Z" stroke="var(--stroke-0, #FFD60A)" stroke-width="1.16667" stroke-linecap="round" stroke-linejoin="round"/>
<path id="Vector_2" d="M3.20833 12.25C4.33591 12.25 5.25 11.3359 5.25 10.2083C5.25 9.08075 4.33591 8.16667 3.20833 8.16667C2.08075 8.16667 1.16667 9.08075 1.16667 10.2083C1.16667 11.3359 2.08075 12.25 3.20833 12.25Z" stroke="var(--stroke-0, #FFD60A)" stroke-width="1.16667" stroke-linecap="round" stroke-linejoin="round"/>
<path id="Vector_3" d="M8.75 3.5C9.07217 3.5 9.33333 3.23883 9.33333 2.91667C9.33333 2.5945 9.07217 2.33333 8.75 2.33333C8.42783 2.33333 8.16667 2.5945 8.16667 2.91667C8.16667 3.23883 8.42783 3.5 8.75 3.5Z" stroke="var(--stroke-0, #FFD60A)" stroke-width="1.16667" stroke-linecap="round" stroke-linejoin="round"/>
<path id="Vector_4" d="M7 10.2083V8.16667L5.25 6.41667L7.58333 4.66667L8.75 6.41667H9.91667" stroke="var(--stroke-0, #FFD60A)" stroke-width="1.16667" stroke-linecap="round" stroke-linejoin="round"/>
</g>
</svg>
