<svg width="93" height="93" viewBox="0 0 93 93" fill="none" xmlns="http://www.w3.org/2000/svg">
<g clip-path="url(#clip0_622_18141)">
<g clip-path="url(#clip1_622_18141)">
<path d="M39.4372 42.772C37.0516 45.424 35.2268 48.531 34.0726 51.9062C33.3801 54.0122 33.3346 56.2774 33.9419 58.4095C34.5492 60.5416 35.7815 62.4428 37.4798 63.8677C40.1621 66.0426 44.4393 67.7824 51.3262 67.275C52.5911 67.2686 53.8529 67.1473 55.0959 66.9125C56.6322 66.6455 58.0957 66.0596 59.3918 65.1926C60.6879 64.3255 61.7881 63.1966 62.6213 61.8785C63.4545 60.5603 64.0023 59.0823 64.2295 57.5395C64.4567 55.9967 64.3581 54.4235 63.9401 52.9211C62.9977 49.4414 61.1854 45.3093 57.7782 42.482C57.3848 42.1789 56.8969 42.0248 56.4008 42.047H41.032C40.7305 42.0507 40.4329 42.117 40.1584 42.2418C39.8838 42.3666 39.6382 42.5472 39.4372 42.772Z" fill="#FFCE32"/>
<path d="M54.0909 48.3678V46.6494H43.7807V48.3678H47.2174C48.8155 48.3678 50.1473 49.4676 50.5339 50.9454H43.7807V52.6637H50.5339C50.1473 54.1415 48.8155 55.2413 47.2174 55.2413H44.6399C44.279 55.2413 43.9611 55.4647 43.8322 55.7998C43.7034 56.1349 43.7979 56.5129 44.0728 56.7449L50.9463 62.7592L52.0804 61.4704L46.9253 56.9597H47.2174C49.7692 56.9597 51.8828 55.0952 52.2952 52.6637H54.0909V50.9454H52.2952C52.1316 49.9858 51.6997 49.0921 51.0494 48.3678H54.0909Z" fill="#0E2F6F"/>
<path d="M19.0654 55.8932C15.7171 49.9142 14.1621 43.0972 14.5864 36.2577C15.0106 29.4182 17.3962 22.8457 21.4577 17.3263C21.5719 17.174 21.6551 17.0007 21.7023 16.8162C21.7496 16.6318 21.76 16.4399 21.7331 16.2514C21.7062 16.0629 21.6424 15.8815 21.5454 15.7177C21.4484 15.5539 21.32 15.4107 21.1677 15.2965C21.0154 15.1823 20.8421 15.0991 20.6576 15.0519C20.4732 15.0046 20.2812 14.9942 20.0927 15.0211C19.9043 15.048 19.7229 15.1118 19.5591 15.2088C19.3952 15.3058 19.2521 15.4342 19.1379 15.5865C14.9878 21.212 12.4447 27.8598 11.7807 34.819C11.1167 41.7781 12.3568 48.7869 15.3682 55.0957C16.6551 54.9409 17.9567 55.2217 19.0654 55.8932ZM30.2295 8.98952C37.2856 4.22781 45.8196 2.16419 54.2718 3.17579C62.7241 4.1874 70.53 8.20667 76.2632 14.4991C76.3917 14.6419 76.5471 14.758 76.7205 14.8407C76.8939 14.9235 77.0818 14.9712 77.2737 14.9813C77.4655 14.9914 77.6575 14.9636 77.8386 14.8996C78.0197 14.8355 78.1865 14.7363 78.3293 14.6078C78.4721 14.4793 78.5881 14.3239 78.6709 14.1505C78.7536 13.9771 78.8014 13.7891 78.8115 13.5973C78.8216 13.4054 78.7938 13.2135 78.7297 13.0324C78.6656 12.8513 78.5665 12.6845 78.438 12.5417C72.2394 5.70597 63.7838 1.33448 54.6225 0.229267C45.4612 -0.875947 36.2086 1.35923 28.5621 6.52473C28.377 6.6159 28.2136 6.74551 28.0826 6.90492C27.9516 7.06432 27.8562 7.24983 27.8026 7.44907C27.7491 7.64831 27.7387 7.85668 27.7721 8.06026C27.8055 8.26384 27.882 8.45795 27.9965 8.6296C28.1109 8.80126 28.2606 8.94652 28.4357 9.05567C28.6108 9.16483 28.8071 9.23537 29.0116 9.26257C29.2161 9.28978 29.4241 9.27303 29.6216 9.21344C29.8191 9.15385 30.0016 9.0528 30.157 8.91703L30.2295 8.98952ZM84.455 20.6611C84.282 20.315 83.9785 20.0518 83.6115 19.9295C83.2444 19.8071 82.8437 19.8356 82.4977 20.0086C82.1516 20.1817 81.8884 20.4851 81.7661 20.8522C81.6437 21.2192 81.6722 21.6199 81.8452 21.966C84.7513 27.8828 85.9644 34.4881 85.3503 41.0514C84.7362 47.6148 82.3188 53.8804 78.3655 59.1554C78.1348 59.463 78.0357 59.8497 78.0901 60.2304C78.1445 60.611 78.3478 60.9545 78.6555 61.1852C78.9631 61.4159 79.3498 61.515 79.7304 61.4606C80.1111 61.4062 80.4546 61.2029 80.6853 60.8952C84.9543 55.1831 87.5592 48.4011 88.2118 41.2999C88.8643 34.1987 87.539 27.0555 84.3825 20.6611H84.455ZM25.9523 57.8505L26.4598 57.633L28.0546 57.1256C28.1996 50.7461 33.9992 43.3517 38.7113 38.4221H59.3721C66.404 45.9615 70.1012 52.4134 70.1012 57.2705C70.1075 59.2721 69.764 61.2593 69.0863 63.1426L70.0287 62.5626C70.7916 61.9826 71.6504 61.5409 72.566 61.2577C72.8153 59.9191 72.9367 58.5597 72.9284 57.1981C72.9284 51.9785 69.5937 45.599 63.0693 38.2046C63.7693 37.9926 64.3888 37.5738 64.8465 37.0032C65.3041 36.4326 65.5784 35.7369 65.6333 35.0075C65.6881 34.2782 65.5211 33.5492 65.1541 32.9166C64.787 32.2839 64.2371 31.7771 63.5767 31.4627C65.4154 28.5351 66.8309 25.3623 67.7814 22.0385C67.8232 21.837 67.8216 21.629 67.7768 21.4283C67.732 21.2275 67.6451 21.0386 67.5216 20.874C67.3982 20.7094 67.2412 20.573 67.061 20.4738C66.8808 20.3746 66.6815 20.3149 66.4765 20.2986C63.7942 20.2986 62.3443 21.7485 61.2569 22.9084C60.1695 24.0683 59.5895 24.6482 58.1397 24.6482C56.6898 24.6482 55.9648 23.9233 55.0224 22.9084C54.08 21.8935 52.4851 20.2986 49.8029 20.2986C47.1206 20.2986 45.7432 21.7485 44.5833 22.9084C43.4234 24.0683 42.9159 24.6482 41.466 24.6482C40.0162 24.6482 39.2912 23.9233 38.3488 22.9084C37.4064 21.8935 35.8115 20.2986 33.1292 20.2986C32.9118 20.2942 32.6961 20.3388 32.4982 20.429C32.3003 20.5193 32.1253 20.6529 31.986 20.82C31.8468 20.9871 31.7469 21.1833 31.6939 21.3943C31.6408 21.6052 31.6358 21.8254 31.6793 22.0385C32.4539 25.2395 33.6227 28.3321 35.1591 31.2452C34.3953 31.4314 33.7128 31.8609 33.2144 32.4689C32.7161 33.0769 32.4289 33.8304 32.3962 34.6158C32.3634 35.4013 32.5869 36.1761 33.033 36.8234C33.4791 37.4707 34.1235 37.9555 34.8691 38.2046C30.012 43.7142 25.1549 50.8186 25.1549 57.2705C25.1549 57.633 25.1549 57.923 25.1549 58.2855L25.9523 57.8505ZM62.1268 34.0725C62.3191 34.0725 62.5035 34.1488 62.6394 34.2848C62.7754 34.4207 62.8518 34.6051 62.8518 34.7974C62.8518 34.9897 62.7754 35.1741 62.6394 35.31C62.5035 35.446 62.3191 35.5223 62.1268 35.5223H36.029C35.8367 35.5223 35.6523 35.446 35.5164 35.31C35.3804 35.1741 35.3041 34.9897 35.3041 34.7974C35.3041 34.6051 35.3804 34.4207 35.5164 34.2848C35.6523 34.1488 35.8367 34.0725 36.029 34.0725H62.1268ZM36.2465 24.9382C37.4064 26.0981 38.7838 27.548 41.466 27.548C44.1483 27.548 45.5257 26.0981 46.6856 24.9382C47.8455 23.7783 48.353 23.1984 49.8029 23.1984C51.2527 23.1984 51.9777 23.9233 52.9201 24.9382C53.8625 25.9531 55.4574 27.548 58.1397 27.548C60.8219 27.548 62.2718 26.0981 63.3592 24.9382L64.1567 24.1408C63.1825 26.6117 61.9428 28.9695 60.4595 31.1727H38.4938C37.1375 28.912 36.043 26.5042 35.2316 23.9958L36.2465 24.9382ZM75.7557 63.94C75.0406 63.8254 74.3094 63.8631 73.6098 64.0505C72.9103 64.2379 72.2581 64.5707 71.6961 65.0274L58.7921 72.9293C59.0163 73.7555 59.114 74.611 59.0821 75.4665C59.0821 75.684 59.0096 75.974 59.0096 76.1915L73.2909 67.4197L73.4359 67.2747C73.6858 67.0682 73.9762 66.9164 74.2883 66.8289C74.6005 66.7415 74.9275 66.7205 75.2483 66.7673C75.6087 66.8386 75.95 66.9853 76.2498 67.1977C76.5496 67.4101 76.8012 67.6833 76.9881 67.9997C77.3915 68.6779 77.5469 69.475 77.4279 70.2551C77.3089 71.0351 76.9229 71.7497 76.3357 72.2768L49.8029 89.5304H49.6579C49.5239 89.6546 49.3589 89.7404 49.1803 89.7787C49.0017 89.817 48.816 89.8063 48.6429 89.7479L28.0546 80.4686H27.8372C26.6048 79.9612 24.9374 79.2362 23.3425 80.0337L20.6603 67.4922L21.1677 67.3472L28.8521 62.9251H28.9246L29.3595 62.7801H30.3745L49.9478 71.1894H50.0928C51.7602 71.6969 53.5 73.4367 53.4276 75.1766C53.4175 75.6915 53.2956 76.1982 53.0703 76.6613C52.845 77.1245 52.5216 77.5331 52.1227 77.8589C51.8324 78.0974 51.4953 78.2722 51.1331 78.3721C50.7709 78.472 50.3918 78.4948 50.0203 78.4388L37.9138 73.6542C37.5639 73.5367 37.1823 73.5572 36.8468 73.7113C36.5114 73.8655 36.2474 74.1419 36.1088 74.484C35.9701 74.8261 35.9671 75.2082 36.1004 75.5525C36.2338 75.8967 36.4934 76.1771 36.8264 76.3365L48.8604 81.1936H49.0779L50.2378 81.3386C51.5039 81.3343 52.731 80.8997 53.7175 80.1062C54.4577 79.5253 55.0618 78.7895 55.4876 77.9505C55.9134 77.1114 56.1505 76.1894 56.1823 75.2491C56.3273 71.9868 53.5725 69.2321 50.8178 68.3621L31.2444 59.9528H31.0269C29.9155 59.6576 28.7359 59.7602 27.6922 60.2428H27.4022L20.0078 64.5924L19.1379 60.4603C19.045 60.0419 18.8687 59.6465 18.6196 59.2978C18.3705 58.949 18.0536 58.654 17.688 58.4305C17.3537 58.2297 16.9814 58.1004 16.5947 58.0505C16.2079 58.0006 15.815 58.0312 15.4407 58.1405L5.50901 60.5328C5.13409 60.6289 4.81271 60.87 4.61558 61.2031C4.41845 61.5362 4.36171 61.934 4.45784 62.3089C4.55398 62.6838 4.79511 63.0052 5.12819 63.2023C5.46128 63.3994 5.85903 63.4562 6.23395 63.36L16.1656 60.8952C16.2051 60.9176 16.2388 60.949 16.264 60.9867C16.2892 61.0245 16.3052 61.0677 16.3106 61.1127L21.7477 86.4856C21.7692 86.547 21.7739 86.613 21.7611 86.6768C21.7483 86.7406 21.7187 86.7998 21.6752 86.8481L11.091 89.9654C10.7649 90.0725 10.4873 90.2919 10.3077 90.5845C10.1281 90.8771 10.0582 91.224 10.1104 91.5633C10.1626 91.9026 10.3336 92.2124 10.5928 92.4376C10.852 92.6627 11.1827 92.7885 11.526 92.7926H11.961L22.4726 89.6754C23.2316 89.4247 23.8689 88.8982 24.2582 88.2001C24.6476 87.502 24.7606 86.6832 24.5749 85.9057L23.9225 82.7884L24.5024 82.6435C24.9374 82.3535 25.8798 82.7884 26.7498 83.1509L47.628 92.5751H47.7005C48.3262 92.8079 49.001 92.8768 49.6608 92.7753C50.3206 92.6738 50.9435 92.4053 51.4702 91.9952L78.0755 74.6691H78.2205C79.3733 73.6956 80.1388 72.3411 80.3782 70.8514C80.6176 69.3617 80.3151 67.8355 79.5254 66.5498C79.1213 65.8696 78.5754 65.2845 77.9249 64.8341C77.2744 64.3838 76.5346 64.0788 75.7557 63.94Z" fill="#0E2F6F"/>
<path d="M77.1331 15.5867H78.293V15.4417H78.3655V14.7892L78.583 7.68482C78.5926 7.30029 78.4491 6.92769 78.184 6.64899C77.9189 6.37028 77.5539 6.20831 77.1694 6.1987C76.7848 6.18908 76.4122 6.33262 76.1335 6.59773C75.8548 6.86283 75.6929 7.2278 75.6833 7.61233L75.5383 13.1944L70.0287 12.8319C69.8383 12.8176 69.647 12.841 69.4656 12.9007C69.2842 12.9603 69.1164 13.0551 68.9716 13.1797C68.8269 13.3042 68.7081 13.456 68.6221 13.6265C68.536 13.7969 68.4844 13.9826 68.4701 14.173C68.4558 14.3634 68.4792 14.5548 68.5388 14.7362C68.5985 14.9175 68.6933 15.0854 68.8179 15.2301C68.9424 15.3748 69.0942 15.4936 69.2647 15.5797C69.4351 15.6657 69.6208 15.7174 69.8112 15.7317L76.8432 16.2391L77.1331 15.5867ZM87.2098 58.3582C87.1671 58.1725 87.0882 57.997 86.9776 57.8418C86.867 57.6866 86.7269 57.5548 86.5653 57.4538C86.4037 57.3528 86.2238 57.2847 86.0358 57.2532C85.8479 57.2218 85.6556 57.2278 85.4699 57.2707L80.3954 58.4306L79.4529 53.2836C79.4446 53.0766 79.392 52.8737 79.2987 52.6888C79.2054 52.5038 79.0735 52.341 78.9119 52.2113C78.7504 52.0816 78.5629 51.988 78.3622 51.9369C78.1614 51.8857 77.952 51.8782 77.7481 51.9148C77.5442 51.9514 77.3505 52.0313 77.18 52.1491C77.0096 52.2668 76.8664 52.4198 76.76 52.5975C76.6536 52.7753 76.5866 52.9739 76.5634 53.1797C76.5403 53.3856 76.5615 53.594 76.6257 53.791L77.8581 60.388H77.9306V60.533H78.0031V60.678H79.5254L86.1224 59.2281C86.3621 59.186 86.5873 59.0842 86.7774 58.9322C86.9674 58.7802 87.1161 58.5828 87.2098 58.3582ZM22.0377 15.8766H21.9652V15.7317H21.8927V15.5867H20.2978L12.7584 16.4566C12.3739 16.4951 12.0204 16.6847 11.7757 16.9838C11.5309 17.2829 11.4151 17.6669 11.4535 18.0515C11.492 18.436 11.6816 18.7895 11.9807 19.0342C12.2798 19.2789 12.6639 19.3948 13.0484 19.3564H13.3384L19.4279 17.979L20.5878 24.141C20.6556 24.4734 20.8378 24.7715 21.1027 24.9835C21.3676 25.1954 21.6985 25.3077 22.0377 25.3009H22.3276C22.7008 25.2303 23.0314 25.016 23.2483 24.7042C23.4652 24.3924 23.5511 24.008 23.4875 23.6335L22.0377 15.8766Z" fill="#0E2F6F"/>
</g>
</g>
<defs>
<clipPath id="clip0_622_18141">
<rect width="92.7924" height="92.7924" fill="white"/>
</clipPath>
<clipPath id="clip1_622_18141">
<rect width="92.7924" height="92.7924" fill="white"/>
</clipPath>
</defs>
</svg>
