<svg width="93" height="93" viewBox="0 0 93 93" fill="none" xmlns="http://www.w3.org/2000/svg">
<g clip-path="url(#clip0_622_18218)">
<path fill-rule="evenodd" clip-rule="evenodd" d="M70.5566 90.2481H1.57894C0.704653 90.2481 0 89.5435 0 88.6692V4.12387C0 3.24957 0.704653 2.54492 1.57894 2.54492H75.424C76.2852 2.54492 77.0029 3.24957 77.0029 4.12387C77.0029 4.99816 76.2852 5.70281 75.424 5.70281H9.17221C5.85059 5.70281 3.15789 8.39551 3.15789 11.7171V81.0759C3.15789 84.3975 5.85059 87.0902 9.17221 87.0902H62.9764C66.298 87.0902 68.9907 84.3975 68.9907 81.0759V34.959C68.9907 34.0847 69.6954 33.38 70.5566 33.38C71.4309 33.38 72.1356 34.0847 72.1356 34.959V88.6692C72.1356 89.5435 71.4309 90.2481 70.5566 90.2481Z" fill="#0E2F6F"/>
<path fill-rule="evenodd" clip-rule="evenodd" d="M58.3426 83.5014H13.7929C13.3753 83.5014 12.9708 83.3318 12.6837 83.0447L7.20306 77.5641C6.90293 77.2639 6.74634 76.8725 6.74634 76.4549V16.3506C6.74634 15.933 6.90293 15.5285 7.20306 15.2284L12.6837 9.74774C12.9708 9.46065 13.3753 9.29102 13.7929 9.29102H58.3426C58.7602 9.29102 59.1647 9.46065 59.4518 9.74774L62.1007 12.3967C62.5575 12.8534 62.688 13.5581 62.427 14.1453C61.6049 15.9722 61.2004 17.9165 61.2004 19.9261C61.2004 23.5146 62.5444 26.9334 64.9716 29.5694C65.2456 29.8564 65.3891 30.2479 65.3891 30.6394V76.4549C65.3891 76.8725 65.2325 77.2639 64.9324 77.5641L59.4518 83.0447C59.1647 83.3318 58.7602 83.5014 58.3426 83.5014ZM14.4453 80.3566H57.6901L62.2443 75.8024V31.2397C59.5301 28.0948 58.0425 24.1018 58.0425 19.9261C58.0425 17.8382 58.4078 15.8156 59.1255 13.8843L57.6901 12.4359H14.4453L9.89118 17.0031V75.8024L14.4453 80.3566Z" fill="#0E2F6F"/>
<path fill-rule="evenodd" clip-rule="evenodd" d="M49.5345 22.197H22.6011C21.7269 22.197 21.0222 21.4923 21.0222 20.618C21.0222 19.7437 21.7269 19.0391 22.6011 19.0391H49.5345C50.4088 19.0391 51.1135 19.7437 51.1135 20.618C51.1135 21.4923 50.4088 22.197 49.5345 22.197ZM55.7198 28.9564H16.4159C15.5416 28.9564 14.8369 28.2517 14.8369 27.3775C14.8369 26.5162 15.5416 25.8116 16.4159 25.8116H55.7198C56.5941 25.8116 57.2988 26.5162 57.2988 27.3775C57.2988 28.2517 56.5941 28.9564 55.7198 28.9564ZM55.7198 36.4205H16.4159C15.5416 36.4205 14.8369 35.7159 14.8369 34.8416C14.8369 33.9803 15.5416 33.2757 16.4159 33.2757H55.7198C56.5941 33.2757 57.2988 33.9803 57.2988 34.8416C57.2988 35.7159 56.5941 36.4205 55.7198 36.4205ZM55.7198 43.8846H16.4159C15.5416 43.8846 14.8369 43.18 14.8369 42.3187C14.8369 41.4444 15.5416 40.7398 16.4159 40.7398H55.7198C56.5941 40.7398 57.2988 41.4444 57.2988 42.3187C57.2988 43.18 56.5941 43.8846 55.7198 43.8846ZM55.7198 51.3487H16.4159C15.5416 51.3487 14.8369 50.6441 14.8369 49.7828C14.8369 48.9085 15.5416 48.2039 16.4159 48.2039H55.7198C56.5941 48.2039 57.2988 48.9085 57.2988 49.7828C57.2988 50.6441 56.5941 51.3487 55.7198 51.3487ZM55.7198 58.8259H16.4159C15.5416 58.8259 14.8369 58.1212 14.8369 57.2469C14.8369 56.3726 15.5416 55.668 16.4159 55.668H55.7198C56.5941 55.668 57.2988 56.3726 57.2988 57.2469C57.2988 58.1212 56.5941 58.8259 55.7198 58.8259ZM55.7198 73.7541H16.4159C15.5416 73.7541 14.8369 73.0494 14.8369 72.1751V64.711C14.8369 63.8367 15.5416 63.1321 16.4159 63.1321H55.7198C56.5941 63.1321 57.2988 63.8367 57.2988 64.711V72.1751C57.2988 73.0494 56.5941 73.7541 55.7198 73.7541Z" fill="#FFCF00"/>
<path fill-rule="evenodd" clip-rule="evenodd" d="M75.4244 37.2948C65.8463 37.2948 58.043 29.5044 58.043 19.9264C58.043 10.3483 65.8463 2.54492 75.4244 2.54492C85.0025 2.54492 92.7928 10.3483 92.7928 19.9264C92.7928 29.5044 85.0025 37.2948 75.4244 37.2948Z" fill="#0E2F6F"/>
<path fill-rule="evenodd" clip-rule="evenodd" d="M71.7441 27.1034C71.3265 27.1034 70.922 26.9338 70.6349 26.6336L66.7854 22.7972C66.1721 22.1708 66.1721 21.1791 66.7854 20.5658C67.3987 19.9525 68.4035 19.9525 69.0168 20.5658L71.7441 23.2931L81.8311 13.2061C82.4444 12.5928 83.4361 12.5928 84.0625 13.2061C84.6758 13.8194 84.6758 14.8242 84.0625 15.4375L72.8533 26.6336C72.5662 26.9338 72.1617 27.1034 71.7441 27.1034Z" fill="#FFCF00"/>
</g>
<defs>
<clipPath id="clip0_622_18218">
<rect width="92.7924" height="92.7924" fill="white"/>
</clipPath>
</defs>
</svg>
